<svg xmlns="http://www.w3.org/2000/svg" xmlns:xlink="http://www.w3.org/1999/xlink" width="534" zoomAndPan="magnify" viewBox="0 0 400.5 121.500001" height="162" preserveAspectRatio="xMidYMid meet" version="1.0"><defs><g/><clipPath id="2cce30382f"><path d="M 1.917969 25.589844 L 71.476562 25.589844 L 71.476562 95.148438 L 1.917969 95.148438 Z M 1.917969 25.589844 " clip-rule="nonzero"/></clipPath></defs><g fill="#a1a1aa" fill-opacity="1"><g transform="translate(87.95931, 75.269083)"><g><path d="M 3.484375 0 L 3.484375 -29.515625 L 13.578125 -29.515625 C 15.117188 -29.515625 16.546875 -29.398438 17.859375 -29.171875 C 19.171875 -28.941406 20.316406 -28.539062 21.296875 -27.96875 C 22.273438 -27.394531 23.039062 -26.640625 23.59375 -25.703125 C 24.15625 -24.773438 24.4375 -23.601562 24.4375 -22.1875 C 24.4375 -21.519531 24.347656 -20.851562 24.171875 -20.1875 C 23.992188 -19.519531 23.738281 -18.898438 23.40625 -18.328125 C 23.070312 -17.753906 22.671875 -17.238281 22.203125 -16.78125 C 21.734375 -16.332031 21.195312 -16.003906 20.59375 -15.796875 L 20.59375 -15.609375 C 21.351562 -15.429688 22.046875 -15.15625 22.671875 -14.78125 C 23.304688 -14.40625 23.863281 -13.929688 24.34375 -13.359375 C 24.832031 -12.785156 25.210938 -12.113281 25.484375 -11.34375 C 25.753906 -10.570312 25.890625 -9.6875 25.890625 -8.6875 C 25.890625 -7.175781 25.59375 -5.878906 25 -4.796875 C 24.414062 -3.710938 23.601562 -2.816406 22.5625 -2.109375 C 21.519531 -1.398438 20.304688 -0.867188 18.921875 -0.515625 C 17.535156 -0.171875 16.039062 0 14.4375 0 Z M 10.140625 -17.703125 L 13.265625 -17.703125 C 14.890625 -17.703125 16.070312 -18.015625 16.8125 -18.640625 C 17.550781 -19.273438 17.921875 -20.125 17.921875 -21.1875 C 17.921875 -22.332031 17.539062 -23.144531 16.78125 -23.625 C 16.03125 -24.113281 14.875 -24.359375 13.3125 -24.359375 L 10.140625 -24.359375 Z M 10.140625 -5.15625 L 13.890625 -5.15625 C 17.546875 -5.15625 19.375 -6.484375 19.375 -9.140625 C 19.375 -10.441406 18.921875 -11.367188 18.015625 -11.921875 C 17.109375 -12.484375 15.734375 -12.765625 13.890625 -12.765625 L 10.140625 -12.765625 Z M 10.140625 -5.15625 "/></g></g></g><g fill="#a1a1aa" fill-opacity="1"><g transform="translate(117.199124, 75.269083)"><g><path d="M 3.484375 0 L 3.484375 -29.515625 L 10.140625 -29.515625 L 10.140625 -5.609375 L 21.8125 -5.609375 L 21.8125 0 Z M 3.484375 0 "/></g></g></g><g fill="#a1a1aa" fill-opacity="1"><g transform="translate(142.501107, 75.269083)"><g><path d="M 15.125 0.546875 C 11.289062 0.546875 8.359375 -0.582031 6.328125 -2.84375 C 4.304688 -5.113281 3.296875 -8.722656 3.296875 -13.671875 L 3.296875 -29.515625 L 10 -29.515625 L 10 -12.984375 C 10 -10.085938 10.4375 -8.066406 11.3125 -6.921875 C 12.1875 -5.773438 13.457031 -5.203125 15.125 -5.203125 C 16.78125 -5.203125 18.0625 -5.773438 18.96875 -6.921875 C 19.875 -8.066406 20.328125 -10.085938 20.328125 -12.984375 L 20.328125 -29.515625 L 26.75 -29.515625 L 26.75 -13.671875 C 26.75 -8.722656 25.757812 -5.113281 23.78125 -2.84375 C 21.8125 -0.582031 18.925781 0.546875 15.125 0.546875 Z M 15.125 0.546875 "/></g></g></g><g fill="#a1a1aa" fill-opacity="1"><g transform="translate(174.456672, 75.269083)"><g><path d="M 3.484375 0 L 3.484375 -29.515625 L 11.8125 -29.515625 C 14.070312 -29.515625 16.109375 -29.226562 17.921875 -28.65625 C 19.734375 -28.082031 21.285156 -27.195312 22.578125 -26 C 23.878906 -24.8125 24.875 -23.296875 25.5625 -21.453125 C 26.257812 -19.609375 26.609375 -17.421875 26.609375 -14.890625 C 26.609375 -12.359375 26.257812 -10.15625 25.5625 -8.28125 C 24.875 -6.414062 23.894531 -4.867188 22.625 -3.640625 C 21.363281 -2.421875 19.847656 -1.507812 18.078125 -0.90625 C 16.316406 -0.300781 14.347656 0 12.171875 0 Z M 10.140625 -5.390625 L 11.40625 -5.390625 C 12.675781 -5.390625 13.820312 -5.550781 14.84375 -5.875 C 15.875 -6.207031 16.75 -6.742188 17.46875 -7.484375 C 18.195312 -8.222656 18.765625 -9.195312 19.171875 -10.40625 C 19.578125 -11.613281 19.78125 -13.109375 19.78125 -14.890625 C 19.78125 -16.640625 19.578125 -18.109375 19.171875 -19.296875 C 18.765625 -20.492188 18.195312 -21.445312 17.46875 -22.15625 C 16.75 -22.863281 15.875 -23.367188 14.84375 -23.671875 C 13.820312 -23.972656 12.675781 -24.125 11.40625 -24.125 L 10.140625 -24.125 Z M 10.140625 -5.390625 "/></g></g></g><g fill="#a1a1aa" fill-opacity="1"><g transform="translate(205.054355, 75.269083)"><g><path d="M 10.40625 -14.9375 L 9.6875 -12.21875 L 15.984375 -12.21875 L 15.296875 -14.9375 C 14.878906 -16.414062 14.472656 -17.984375 14.078125 -19.640625 C 13.679688 -21.304688 13.289062 -22.90625 12.90625 -24.4375 L 12.71875 -24.4375 C 12.351562 -22.875 11.984375 -21.269531 11.609375 -19.625 C 11.234375 -17.976562 10.832031 -16.414062 10.40625 -14.9375 Z M -0.265625 0 L 8.96875 -29.515625 L 16.96875 -29.515625 L 26.203125 0 L 19.140625 0 L 17.34375 -7.015625 L 8.328125 -7.015625 L 6.515625 0 Z M -0.265625 0 "/></g></g></g><g fill="#a1a1aa" fill-opacity="1"><g transform="translate(232.845779, 75.269083)"><g><path d="M 12.5 0.546875 C 10.5625 0.546875 8.632812 0.191406 6.71875 -0.515625 C 4.800781 -1.222656 3.085938 -2.289062 1.578125 -3.71875 L 5.390625 -8.28125 C 6.441406 -7.375 7.609375 -6.632812 8.890625 -6.0625 C 10.171875 -5.488281 11.429688 -5.203125 12.671875 -5.203125 C 14.054688 -5.203125 15.085938 -5.457031 15.765625 -5.96875 C 16.453125 -6.488281 16.796875 -7.1875 16.796875 -8.0625 C 16.796875 -8.507812 16.695312 -8.898438 16.5 -9.234375 C 16.300781 -9.566406 16.015625 -9.859375 15.640625 -10.109375 C 15.265625 -10.367188 14.8125 -10.613281 14.28125 -10.84375 C 13.75 -11.070312 13.164062 -11.320312 12.53125 -11.59375 L 8.6875 -13.21875 C 7.9375 -13.519531 7.207031 -13.910156 6.5 -14.390625 C 5.789062 -14.878906 5.15625 -15.445312 4.59375 -16.09375 C 4.03125 -16.738281 3.582031 -17.488281 3.25 -18.34375 C 2.925781 -19.207031 2.765625 -20.1875 2.765625 -21.28125 C 2.765625 -22.476562 3.019531 -23.613281 3.53125 -24.6875 C 4.039062 -25.757812 4.765625 -26.695312 5.703125 -27.5 C 6.640625 -28.300781 7.75 -28.925781 9.03125 -29.375 C 10.3125 -29.832031 11.722656 -30.0625 13.265625 -30.0625 C 14.984375 -30.0625 16.679688 -29.726562 18.359375 -29.0625 C 20.035156 -28.394531 21.503906 -27.425781 22.765625 -26.15625 L 19.375 -21.953125 C 18.40625 -22.703125 17.4375 -23.28125 16.46875 -23.6875 C 15.507812 -24.101562 14.441406 -24.3125 13.265625 -24.3125 C 12.117188 -24.3125 11.203125 -24.078125 10.515625 -23.609375 C 9.835938 -23.140625 9.5 -22.484375 9.5 -21.640625 C 9.5 -21.179688 9.613281 -20.789062 9.84375 -20.46875 C 10.070312 -20.15625 10.390625 -19.867188 10.796875 -19.609375 C 11.203125 -19.359375 11.675781 -19.117188 12.21875 -18.890625 C 12.757812 -18.671875 13.347656 -18.425781 13.984375 -18.15625 L 17.796875 -16.609375 C 19.597656 -15.890625 21.019531 -14.894531 22.0625 -13.625 C 23.101562 -12.351562 23.625 -10.675781 23.625 -8.59375 C 23.625 -7.363281 23.375 -6.195312 22.875 -5.09375 C 22.382812 -3.988281 21.660156 -3.019531 20.703125 -2.1875 C 19.753906 -1.363281 18.585938 -0.703125 17.203125 -0.203125 C 15.816406 0.296875 14.25 0.546875 12.5 0.546875 Z M 12.5 0.546875 "/></g></g></g><g fill="#a1a1aa" fill-opacity="1"><g transform="translate(259.867726, 75.269083)"><g><path d="M 3.484375 0 L 3.484375 -29.515625 L 10.140625 -29.515625 L 10.140625 -18.15625 L 20.328125 -18.15625 L 20.328125 -29.515625 L 27.03125 -29.515625 L 27.03125 0 L 20.328125 0 L 20.328125 -12.3125 L 10.140625 -12.3125 L 10.140625 0 Z M 3.484375 0 "/></g></g></g><g fill="#a1a1aa" fill-opacity="1"><g transform="translate(292.230658, 75.269083)"><g><path d="M 3.484375 0 L 3.484375 -29.515625 L 10.765625 -29.515625 L 15.53125 -16.390625 C 15.832031 -15.515625 16.117188 -14.613281 16.390625 -13.6875 C 16.660156 -12.769531 16.945312 -11.859375 17.25 -10.953125 L 17.421875 -10.953125 C 17.722656 -11.859375 18.003906 -12.769531 18.265625 -13.6875 C 18.523438 -14.613281 18.804688 -15.515625 19.109375 -16.390625 L 23.765625 -29.515625 L 31 -29.515625 L 31 0 L 24.9375 0 L 24.9375 -10.8125 C 24.9375 -11.539062 24.96875 -12.34375 25.03125 -13.21875 C 25.09375 -14.09375 25.164062 -14.972656 25.25 -15.859375 C 25.34375 -16.753906 25.4375 -17.628906 25.53125 -18.484375 C 25.625 -19.347656 25.710938 -20.144531 25.796875 -20.875 L 25.625 -20.875 L 23.21875 -13.84375 L 19.015625 -2.578125 L 15.34375 -2.578125 L 11.140625 -13.84375 L 8.78125 -20.875 L 8.59375 -20.875 C 8.6875 -20.144531 8.78125 -19.347656 8.875 -18.484375 C 8.96875 -17.628906 9.054688 -16.753906 9.140625 -15.859375 C 9.234375 -14.972656 9.304688 -14.09375 9.359375 -13.21875 C 9.421875 -12.34375 9.453125 -11.539062 9.453125 -10.8125 L 9.453125 0 Z M 3.484375 0 "/></g></g></g><g fill="#a1a1aa" fill-opacity="1"><g transform="translate(328.57668, 75.269083)"><g><path d="M 3.484375 0 L 3.484375 -29.515625 L 10.140625 -29.515625 L 10.140625 0 Z M 3.484375 0 "/></g></g></g><g fill="#a1a1aa" fill-opacity="1"><g transform="translate(344.05672, 75.269083)"><g><path d="M 3.484375 0 L 3.484375 -29.515625 L 10.328125 -29.515625 L 18.015625 -14.84375 L 20.90625 -8.328125 L 21.09375 -8.328125 C 20.945312 -9.898438 20.773438 -11.648438 20.578125 -13.578125 C 20.378906 -15.515625 20.28125 -17.359375 20.28125 -19.109375 L 20.28125 -29.515625 L 26.609375 -29.515625 L 26.609375 0 L 19.78125 0 L 12.078125 -14.71875 L 9.1875 -21.140625 L 9.015625 -21.140625 C 9.160156 -19.503906 9.332031 -17.75 9.53125 -15.875 C 9.726562 -14.007812 9.828125 -12.203125 9.828125 -10.453125 L 9.828125 0 Z M 3.484375 0 "/></g></g></g><path fill="#a1a1aa" d="M 36.148438 78.589844 C 27.191406 78.25 19.894531 70.953125 19.554688 61.996094 C 19.207031 52.890625 25.910156 45.28125 34.640625 44.179688 C 35.796875 44.035156 36.820312 44.9375 36.824219 46.105469 C 36.847656 60.664062 37.480469 61.292969 52.042969 61.320312 C 53.207031 61.324219 54.109375 62.347656 53.964844 63.503906 C 52.863281 72.230469 45.25 78.933594 36.148438 78.589844 Z M 36.148438 78.589844 " fill-opacity="1" fill-rule="evenodd"/><g clip-path="url(#2cce30382f)"><path fill="#a1a1aa" d="M 36.695312 25.589844 C 11.636719 25.589844 1.917969 35.042969 1.917969 60.363281 C 1.917969 86.121094 11.113281 95.140625 36.695312 95.140625 C 62.398438 95.140625 71.472656 85.597656 71.472656 60.363281 C 71.472656 35.148438 61.976562 25.589844 36.695312 25.589844 Z M 36.757812 85.171875 C 23.089844 85.171875 12.011719 74.09375 12.011719 60.425781 C 12.011719 46.753906 23.09375 35.675781 36.757812 35.675781 C 50.425781 35.675781 61.507812 46.753906 61.507812 60.425781 C 61.507812 74.09375 50.429688 85.171875 36.757812 85.171875 Z M 36.757812 85.171875 " fill-opacity="1" fill-rule="evenodd"/></g></svg>