<svg xmlns="http://www.w3.org/2000/svg" xmlns:xlink="http://www.w3.org/1999/xlink" width="534" zoomAndPan="magnify" viewBox="0 0 400.5 121.500001" height="162" preserveAspectRatio="xMidYMid meet" version="1.0"><defs><g/><clipPath id="497abb9fa2"><path d="M 1.917969 25.589844 L 72.214844 25.589844 L 72.214844 95.886719 L 1.917969 95.886719 Z M 1.917969 25.589844 " clip-rule="nonzero"/></clipPath></defs><g fill="#a1a1aa" fill-opacity="1"><g transform="translate(82.553946, 76.002681)"><g><path d="M 3.65625 0 L 3.65625 -30.984375 L 14.25 -30.984375 C 15.863281 -30.984375 17.359375 -30.863281 18.734375 -30.625 C 20.117188 -30.382812 21.328125 -29.960938 22.359375 -29.359375 C 23.390625 -28.765625 24.195312 -27.972656 24.78125 -26.984375 C 25.363281 -26.003906 25.65625 -24.769531 25.65625 -23.28125 C 25.65625 -22.582031 25.5625 -21.882812 25.375 -21.1875 C 25.1875 -20.488281 24.914062 -19.835938 24.5625 -19.234375 C 24.21875 -18.640625 23.796875 -18.101562 23.296875 -17.625 C 22.804688 -17.15625 22.25 -16.804688 21.625 -16.578125 L 21.625 -16.390625 C 22.414062 -16.203125 23.140625 -15.910156 23.796875 -15.515625 C 24.460938 -15.117188 25.050781 -14.617188 25.5625 -14.015625 C 26.070312 -13.410156 26.46875 -12.703125 26.75 -11.890625 C 27.03125 -11.085938 27.171875 -10.164062 27.171875 -9.125 C 27.171875 -7.539062 26.863281 -6.175781 26.25 -5.03125 C 25.632812 -3.894531 24.78125 -2.953125 23.6875 -2.203125 C 22.59375 -1.460938 21.316406 -0.910156 19.859375 -0.546875 C 18.398438 -0.179688 16.832031 0 15.15625 0 Z M 10.640625 -18.578125 L 13.921875 -18.578125 C 15.628906 -18.578125 16.867188 -18.910156 17.640625 -19.578125 C 18.421875 -20.242188 18.8125 -21.128906 18.8125 -22.234375 C 18.8125 -23.441406 18.414062 -24.296875 17.625 -24.796875 C 16.832031 -25.304688 15.613281 -25.5625 13.96875 -25.5625 L 10.640625 -25.5625 Z M 10.640625 -5.421875 L 14.59375 -5.421875 C 18.425781 -5.421875 20.34375 -6.8125 20.34375 -9.59375 C 20.34375 -10.957031 19.863281 -11.929688 18.90625 -12.515625 C 17.957031 -13.109375 16.519531 -13.40625 14.59375 -13.40625 L 10.640625 -13.40625 Z M 10.640625 -5.421875 "/></g></g></g><g fill="#a1a1aa" fill-opacity="1"><g transform="translate(113.253736, 76.002681)"><g><path d="M 3.65625 0 L 3.65625 -30.984375 L 10.640625 -30.984375 L 10.640625 -5.890625 L 22.90625 -5.890625 L 22.90625 0 Z M 3.65625 0 "/></g></g></g><g fill="#a1a1aa" fill-opacity="1"><g transform="translate(139.819075, 76.002681)"><g><path d="M 15.875 0.5625 C 11.84375 0.5625 8.765625 -0.625 6.640625 -3 C 4.523438 -5.375 3.46875 -9.15625 3.46875 -14.34375 L 3.46875 -30.984375 L 10.5 -30.984375 L 10.5 -13.640625 C 10.5 -10.597656 10.957031 -8.472656 11.875 -7.265625 C 12.789062 -6.066406 14.125 -5.46875 15.875 -5.46875 C 17.613281 -5.46875 18.957031 -6.066406 19.90625 -7.265625 C 20.851562 -8.472656 21.328125 -10.597656 21.328125 -13.640625 L 21.328125 -30.984375 L 28.078125 -30.984375 L 28.078125 -14.34375 C 28.078125 -9.15625 27.039062 -5.375 24.96875 -3 C 22.894531 -0.625 19.863281 0.5625 15.875 0.5625 Z M 15.875 0.5625 "/></g></g></g><g fill="#a1a1aa" fill-opacity="1"><g transform="translate(173.370217, 76.002681)"><g><path d="M 3.65625 0 L 3.65625 -30.984375 L 12.40625 -30.984375 C 14.78125 -30.984375 16.914062 -30.679688 18.8125 -30.078125 C 20.71875 -29.472656 22.347656 -28.546875 23.703125 -27.296875 C 25.066406 -26.046875 26.113281 -24.453125 26.84375 -22.515625 C 27.570312 -20.585938 27.9375 -18.289062 27.9375 -15.625 C 27.9375 -12.96875 27.570312 -10.65625 26.84375 -8.6875 C 26.113281 -6.726562 25.082031 -5.109375 23.75 -3.828125 C 22.425781 -2.546875 20.835938 -1.585938 18.984375 -0.953125 C 17.128906 -0.316406 15.0625 0 12.78125 0 Z M 10.640625 -5.65625 L 11.96875 -5.65625 C 13.300781 -5.65625 14.503906 -5.828125 15.578125 -6.171875 C 16.660156 -6.523438 17.582031 -7.085938 18.34375 -7.859375 C 19.101562 -8.640625 19.695312 -9.660156 20.125 -10.921875 C 20.550781 -12.191406 20.765625 -13.757812 20.765625 -15.625 C 20.765625 -17.46875 20.550781 -19.015625 20.125 -20.265625 C 19.695312 -21.515625 19.101562 -22.507812 18.34375 -23.25 C 17.582031 -24 16.660156 -24.53125 15.578125 -24.84375 C 14.503906 -25.164062 13.300781 -25.328125 11.96875 -25.328125 L 10.640625 -25.328125 Z M 10.640625 -5.65625 "/></g></g></g><g fill="#a1a1aa" fill-opacity="1"><g transform="translate(205.495677, 76.002681)"><g><path d="M 10.921875 -15.6875 L 10.171875 -12.828125 L 16.765625 -12.828125 L 16.0625 -15.6875 C 15.613281 -17.238281 15.179688 -18.882812 14.765625 -20.625 C 14.359375 -22.363281 13.953125 -24.039062 13.546875 -25.65625 L 13.359375 -25.65625 C 12.972656 -24.007812 12.582031 -22.320312 12.1875 -20.59375 C 11.789062 -18.875 11.367188 -17.238281 10.921875 -15.6875 Z M -0.28125 0 L 9.40625 -30.984375 L 17.8125 -30.984375 L 27.515625 0 L 20.09375 0 L 18.203125 -7.359375 L 8.75 -7.359375 L 6.84375 0 Z M -0.28125 0 "/></g></g></g><g fill="#a1a1aa" fill-opacity="1"><g transform="translate(234.674758, 76.002681)"><g><path d="M 13.109375 0.5625 C 11.085938 0.5625 9.066406 0.191406 7.046875 -0.546875 C 5.035156 -1.285156 3.238281 -2.398438 1.65625 -3.890625 L 5.65625 -8.703125 C 6.757812 -7.742188 7.984375 -6.960938 9.328125 -6.359375 C 10.679688 -5.765625 12.003906 -5.46875 13.296875 -5.46875 C 14.753906 -5.46875 15.835938 -5.734375 16.546875 -6.265625 C 17.265625 -6.804688 17.625 -7.535156 17.625 -8.453125 C 17.625 -8.929688 17.519531 -9.34375 17.3125 -9.6875 C 17.113281 -10.039062 16.816406 -10.351562 16.421875 -10.625 C 16.023438 -10.894531 15.546875 -11.144531 14.984375 -11.375 C 14.429688 -11.613281 13.820312 -11.875 13.15625 -12.15625 L 9.125 -13.875 C 8.332031 -14.1875 7.5625 -14.597656 6.8125 -15.109375 C 6.070312 -15.617188 5.40625 -16.210938 4.8125 -16.890625 C 4.226562 -17.566406 3.765625 -18.359375 3.421875 -19.265625 C 3.078125 -20.171875 2.90625 -21.191406 2.90625 -22.328125 C 2.90625 -23.597656 3.171875 -24.796875 3.703125 -25.921875 C 4.242188 -27.046875 5.003906 -28.023438 5.984375 -28.859375 C 6.960938 -29.703125 8.125 -30.359375 9.46875 -30.828125 C 10.820312 -31.304688 12.304688 -31.546875 13.921875 -31.546875 C 15.722656 -31.546875 17.503906 -31.195312 19.265625 -30.5 C 21.023438 -29.800781 22.570312 -28.789062 23.90625 -27.46875 L 20.34375 -23.046875 C 19.320312 -23.835938 18.304688 -24.445312 17.296875 -24.875 C 16.285156 -25.300781 15.160156 -25.515625 13.921875 -25.515625 C 12.710938 -25.515625 11.753906 -25.269531 11.046875 -24.78125 C 10.335938 -24.289062 9.984375 -23.601562 9.984375 -22.71875 C 9.984375 -22.238281 10.097656 -21.832031 10.328125 -21.5 C 10.566406 -21.164062 10.898438 -20.863281 11.328125 -20.59375 C 11.753906 -20.320312 12.253906 -20.066406 12.828125 -19.828125 C 13.398438 -19.597656 14.019531 -19.335938 14.6875 -19.046875 L 18.671875 -17.4375 C 20.578125 -16.675781 22.070312 -15.628906 23.15625 -14.296875 C 24.25 -12.972656 24.796875 -11.21875 24.796875 -9.03125 C 24.796875 -7.726562 24.535156 -6.5 24.015625 -5.34375 C 23.492188 -4.1875 22.734375 -3.171875 21.734375 -2.296875 C 20.734375 -1.429688 19.503906 -0.738281 18.046875 -0.21875 C 16.597656 0.300781 14.953125 0.5625 13.109375 0.5625 Z M 13.109375 0.5625 "/></g></g></g><g fill="#a1a1aa" fill-opacity="1"><g transform="translate(263.045941, 76.002681)"><g><path d="M 3.65625 0 L 3.65625 -30.984375 L 10.640625 -30.984375 L 10.640625 -19.046875 L 21.328125 -19.046875 L 21.328125 -30.984375 L 28.359375 -30.984375 L 28.359375 0 L 21.328125 0 L 21.328125 -12.921875 L 10.640625 -12.921875 L 10.640625 0 Z M 3.65625 0 "/></g></g></g><g fill="#a1a1aa" fill-opacity="1"><g transform="translate(297.024791, 76.002681)"><g><path d="M 3.65625 0 L 3.65625 -30.984375 L 11.3125 -30.984375 L 16.296875 -17.203125 C 16.609375 -16.285156 16.90625 -15.34375 17.1875 -14.375 C 17.476562 -13.40625 17.785156 -12.445312 18.109375 -11.5 L 18.296875 -11.5 C 18.609375 -12.445312 18.898438 -13.40625 19.171875 -14.375 C 19.441406 -15.34375 19.734375 -16.285156 20.046875 -17.203125 L 24.953125 -30.984375 L 32.546875 -30.984375 L 32.546875 0 L 26.1875 0 L 26.1875 -11.359375 C 26.1875 -12.117188 26.21875 -12.957031 26.28125 -13.875 C 26.34375 -14.789062 26.421875 -15.71875 26.515625 -16.65625 C 26.609375 -17.59375 26.703125 -18.507812 26.796875 -19.40625 C 26.890625 -20.3125 26.984375 -21.144531 27.078125 -21.90625 L 26.890625 -21.90625 L 24.375 -14.546875 L 19.953125 -2.703125 L 16.109375 -2.703125 L 11.6875 -14.546875 L 9.21875 -21.90625 L 9.03125 -21.90625 C 9.125 -21.144531 9.21875 -20.3125 9.3125 -19.40625 C 9.40625 -18.507812 9.5 -17.59375 9.59375 -16.65625 C 9.6875 -15.71875 9.765625 -14.789062 9.828125 -13.875 C 9.898438 -12.957031 9.9375 -12.117188 9.9375 -11.359375 L 9.9375 0 Z M 3.65625 0 "/></g></g></g><g fill="#a1a1aa" fill-opacity="1"><g transform="translate(335.185609, 76.002681)"><g><path d="M 3.65625 0 L 3.65625 -30.984375 L 10.640625 -30.984375 L 10.640625 0 Z M 3.65625 0 "/></g></g></g><g fill="#a1a1aa" fill-opacity="1"><g transform="translate(351.438586, 76.002681)"><g><path d="M 3.65625 0 L 3.65625 -30.984375 L 10.828125 -30.984375 L 18.90625 -15.578125 L 21.953125 -8.75 L 22.140625 -8.75 C 21.984375 -10.394531 21.800781 -12.226562 21.59375 -14.25 C 21.382812 -16.28125 21.28125 -18.210938 21.28125 -20.046875 L 21.28125 -30.984375 L 27.9375 -30.984375 L 27.9375 0 L 20.765625 0 L 12.6875 -15.4375 L 9.640625 -22.1875 L 9.453125 -22.1875 C 9.609375 -20.476562 9.789062 -18.640625 10 -16.671875 C 10.207031 -14.710938 10.3125 -12.8125 10.3125 -10.96875 L 10.3125 0 Z M 3.65625 0 "/></g></g></g><path fill="#a1a1aa" d="M 36.511719 79.152344 C 27.460938 78.808594 20.085938 71.433594 19.742188 62.382812 C 19.394531 53.183594 26.167969 45.488281 34.988281 44.378906 C 36.160156 44.230469 37.191406 45.144531 37.195312 46.320312 C 37.21875 61.039062 37.855469 61.671875 52.574219 61.703125 C 53.75 61.703125 54.664062 62.738281 54.515625 63.90625 C 53.40625 72.726562 45.710938 79.5 36.511719 79.152344 Z M 36.511719 79.152344 " fill-opacity="1" fill-rule="evenodd"/><g clip-path="url(#497abb9fa2)"><path fill="#a1a1aa" d="M 37.0625 25.589844 C 11.738281 25.589844 1.917969 35.144531 1.917969 60.734375 C 1.917969 86.761719 11.210938 95.882812 37.0625 95.882812 C 63.042969 95.882812 72.210938 86.234375 72.210938 60.734375 C 72.210938 35.25 62.617188 25.589844 37.0625 25.589844 Z M 37.128906 85.804688 C 23.316406 85.804688 12.117188 74.609375 12.117188 60.792969 C 12.117188 46.980469 23.316406 35.78125 37.128906 35.78125 C 50.941406 35.78125 62.140625 46.980469 62.140625 60.792969 C 62.140625 74.609375 50.945312 85.804688 37.128906 85.804688 Z M 37.128906 85.804688 " fill-opacity="1" fill-rule="evenodd"/></g></svg>