<svg id="Layer_1" data-name="Layer 1" xmlns="http://www.w3.org/2000/svg" viewBox="0 0 799.93 594.1"><title>nuxt</title><path d="M657.41,675.75l.77-1.58a18.42,18.42,0,0,0,1.83-3.9v-.12a38.46,38.46,0,0,0,1.82-20.32v.25a59.24,59.24,0,0,0-7.82-20.7l.25.25L476.91,317.78,449.83,270.5,245.93,629.63a61.23,61.23,0,0,0-6.9,20v.4a41.66,41.66,0,0,0,2.73,23.82l-.13-.25a20.19,20.19,0,0,0,1.7,3.38l-.12-.13C248.56,686,259.88,697,284.88,697h330c5.2,0,30.85-1.05,42.7-21.22ZM449.86,365.2l162,284.9H288ZM791.51,629.67l-233.85-412c-2.48-4.43-15.88-26.3-39.45-26.3-10.55,0-25.65,4.55-38,26.17l-30.2,53L476.81,318l41.67-73.82L749.86,650.28h-88A39.28,39.28,0,0,1,660,670.45v-.25a25,25,0,0,1-1.83,4.17v-.12l-.77,1.57C645.56,696,620,697.05,615.08,697.05H752.71c5.07,0,30.47-1,42.32-21.23,5.35-9.25,9-24.59-3.52-46.1Zm-548,47.25c-.52-1-1-2.07-1.57-3.12v-.13A41.72,41.72,0,0,1,239,649.85v.25H50L331,155.7l92.17,162.1L450,270.53,369.48,128.85c-2.22-4-15.75-25.9-39.2-25.9-10.55,0-25.77,4.55-38,26.3L7.63,629.65c-2.47,4.3-14.2,27-2.47,47.13,5.35,9.25,16.67,20.05,41.67,20.05H285.11c-24.75,0-36.33-10.68-41.68-20.05Z" transform="translate(-0.03 -102.95)"/></svg>