<svg xmlns="http://www.w3.org/2000/svg" xmlns:xlink="http://www.w3.org/1999/xlink" width="500" zoomAndPan="magnify" viewBox="0 0 375 374.999991" height="500" preserveAspectRatio="xMidYMid meet" version="1.0"><defs><clipPath id="bb10883c54"><path d="M 80 76 L 301.777344 76 L 301.777344 302 L 80 302 Z M 80 76 " clip-rule="nonzero"/></clipPath><clipPath id="883724391b"><path d="M 73.027344 37.5 L 300 37.5 L 300 339 L 73.027344 339 Z M 73.027344 37.5 " clip-rule="nonzero"/></clipPath></defs><g clip-path="url(#bb10883c54)"><path d="M 97.195312 76.417969 C 97.195312 116.738281 122.210938 140.929688 172.238281 153.660156 L 225.238281 165.96875 C 272.722656 177.003906 301.550781 204.164062 301.550781 248.304688 C 301.976562 267.402344 295.617188 286.078125 284.167969 301.355469 C 284.167969 257.21875 261.273438 233.449219 206.582031 219.019531 L 154.433594 207.136719 C 112.457031 197.800781 80.234375 175.304688 80.234375 127.347656 C 80.234375 109.097656 86.171875 90.847656 97.195312 76.417969 " fill-opacity="1" fill-rule="nonzero"/></g><g clip-path="url(#883724391b)"><path d="M 251.523438 237.269531 C 273.992188 251.699219 284.167969 272.070312 284.167969 301.355469 C 265.089844 325.546875 232.445312 338.703125 193.863281 338.703125 C 128.992188 338.703125 82.78125 306.449219 73.027344 250.851562 L 135.351562 250.851562 C 143.410156 276.316406 164.609375 288.199219 193.4375 288.199219 C 227.78125 288.625 251.097656 269.949219 251.523438 237.269531 M 129.839844 136.257812 C 108.644531 123.527344 96.347656 100.609375 97.195312 75.992188 C 115.425781 52.226562 146.800781 37.796875 184.957031 37.796875 C 251.523438 37.796875 289.679688 73.023438 299.433594 122.253906 L 239.226562 122.253906 C 232.445312 102.730469 215.910156 87.453125 185.804688 87.453125 C 153.160156 87.875 131.113281 106.550781 129.839844 136.257812 " fill-opacity="1" fill-rule="nonzero"/></g></svg>