<svg xmlns="http://www.w3.org/2000/svg" xmlns:xlink="http://www.w3.org/1999/xlink" width="534" zoomAndPan="magnify" viewBox="0 0 400.5 121.500001" height="162" preserveAspectRatio="xMidYMid meet" version="1.0"><defs><g/><clipPath id="2bb8132002"><path d="M 2.234375 33.023438 L 82.175781 33.023438 L 82.175781 88.367188 L 2.234375 88.367188 Z M 2.234375 33.023438 " clip-rule="nonzero"/></clipPath><clipPath id="f6a182c561"><path d="M 48.160156 76.882812 L 7.480469 76.882812 C 6.617188 75.683594 5.839844 74.410156 5.171875 73.078125 C 5.160156 73.054688 5.148438 73.027344 5.136719 73.003906 C 4.855469 72.4375 4.59375 71.863281 4.351562 71.28125 C 3.839844 70.054688 3.417969 68.78125 3.085938 67.476562 L 53.5625 67.476562 L 54.910156 69.828125 L 55.746094 71.28125 L 58.769531 71.28125 L 59.605469 69.828125 L 60.957031 67.476562 L 66.359375 67.476562 L 67.707031 69.828125 L 69.058594 72.179688 L 67.707031 74.53125 L 66.359375 76.882812 L 60.957031 76.882812 L 59.605469 74.53125 L 58.769531 73.078125 L 55.746094 73.078125 L 54.910156 74.53125 L 53.5625 76.882812 Z M 54.34375 50.113281 L 53.511719 51.566406 L 52.160156 53.917969 L 3.085938 53.917969 C 3.417969 52.609375 3.839844 51.339844 4.351562 50.113281 C 4.59375 49.527344 4.855469 48.953125 5.136719 48.390625 C 5.148438 48.363281 5.160156 48.339844 5.175781 48.3125 C 5.839844 46.980469 6.617188 45.707031 7.480469 44.507812 L 52.160156 44.507812 L 53.511719 46.859375 L 54.34375 48.3125 L 57.371094 48.3125 L 58.207031 46.859375 L 59.554688 44.507812 L 64.957031 44.507812 L 67.660156 49.210938 L 66.308594 51.566406 L 64.957031 53.917969 L 59.554688 53.917969 L 58.207031 51.566406 L 57.371094 50.113281 Z M 15.882812 36.832031 C 19.964844 34.414062 24.710938 33.023438 29.765625 33.023438 L 39.996094 33.023438 L 41.347656 35.375 L 42.183594 36.828125 L 45.207031 36.828125 L 47.390625 33.023438 L 52.792969 33.023438 L 54.144531 35.375 L 54.980469 36.828125 L 55.496094 37.726562 L 54.980469 38.628906 L 54.144531 40.082031 L 52.792969 42.433594 L 47.390625 42.433594 L 46.042969 40.082031 L 45.207031 38.628906 L 42.183594 38.628906 L 41.347656 40.082031 L 39.996094 42.433594 L 9.132812 42.433594 C 10.363281 41.03125 11.730469 39.753906 13.210938 38.628906 C 14.066406 37.976562 14.957031 37.378906 15.882812 36.828125 Z M 71.441406 60.695312 L 74.144531 55.992188 L 79.542969 55.992188 L 82.246094 60.695312 L 79.542969 65.398438 L 74.144531 65.398438 Z M 65.332031 78.957031 L 79.128906 78.957031 L 80.480469 81.308594 L 81.832031 83.664062 L 79.128906 88.367188 L 65.332031 88.367188 L 63.984375 86.015625 L 63.148438 84.5625 L 60.125 84.5625 L 59.289062 86.015625 L 57.9375 88.367188 L 29.765625 88.367188 C 24.710938 88.367188 19.964844 86.976562 15.882812 84.5625 C 14.957031 84.015625 14.066406 83.414062 13.210938 82.765625 C 11.730469 81.636719 10.363281 80.359375 9.132812 78.960938 L 57.9375 78.960938 L 59.289062 81.3125 L 60.125 82.765625 L 63.148438 82.765625 L 63.984375 81.3125 L 65.332031 78.960938 Z M 46.484375 55.992188 L 59.523438 55.992188 L 60.871094 58.34375 L 61.707031 59.796875 L 62.222656 60.695312 L 61.707031 61.59375 L 60.871094 63.046875 L 59.523438 65.398438 L 46.484375 65.398438 L 45.132812 63.046875 L 44.296875 61.59375 L 41.273438 61.59375 L 41.789062 60.695312 L 40.4375 63.046875 L 39.089844 65.398438 L 2.644531 65.398438 C 2.433594 64.15625 2.300781 62.886719 2.261719 61.59375 C 2.25 61.296875 2.246094 60.996094 2.246094 60.695312 C 2.246094 60.394531 2.25 60.097656 2.261719 59.796875 C 2.300781 58.503906 2.433594 57.234375 2.644531 55.992188 L 39.089844 55.992188 L 40.4375 58.34375 L 41.789062 60.695312 L 41.273438 59.796875 L 44.296875 59.796875 L 45.132812 58.34375 Z M 46.484375 55.992188 " clip-rule="evenodd"/></clipPath><linearGradient x1="2685.782277" gradientTransform="matrix(-0.0289335, -0, -0, 0.0290921, 82.245836, 33.025103)" y1="-54.272117" x2="915.440672" gradientUnits="userSpaceOnUse" y2="2528.166175" id="013252509f"><stop stop-opacity="1" stop-color="rgb(63.09967%, 63.09967%, 66.699219%)" offset="0"/><stop stop-opacity="1" stop-color="rgb(63.09967%, 63.09967%, 66.699219%)" offset="0.0625"/><stop stop-opacity="1" stop-color="rgb(62.991333%, 62.991333%, 66.586304%)" offset="0.078125"/><stop stop-opacity="1" stop-color="rgb(62.660217%, 62.660217%, 66.239929%)" offset="0.0820312"/><stop stop-opacity="1" stop-color="rgb(62.438965%, 62.438965%, 66.007996%)" offset="0.0859375"/><stop stop-opacity="1" stop-color="rgb(62.217712%, 62.217712%, 65.774536%)" offset="0.0898438"/><stop stop-opacity="1" stop-color="rgb(61.99646%, 61.99646%, 65.542603%)" offset="0.09375"/><stop stop-opacity="1" stop-color="rgb(61.773682%, 61.773682%, 65.309143%)" offset="0.0976563"/><stop stop-opacity="1" stop-color="rgb(61.552429%, 61.552429%, 65.077209%)" offset="0.101563"/><stop stop-opacity="1" stop-color="rgb(61.329651%, 61.329651%, 64.84375%)" offset="0.105469"/><stop stop-opacity="1" stop-color="rgb(61.108398%, 61.108398%, 64.611816%)" offset="0.109375"/><stop stop-opacity="1" stop-color="rgb(60.88562%, 60.88562%, 64.378357%)" offset="0.113281"/><stop stop-opacity="1" stop-color="rgb(60.664368%, 60.664368%, 64.146423%)" offset="0.117188"/><stop stop-opacity="1" stop-color="rgb(60.441589%, 60.441589%, 63.91449%)" offset="0.121094"/><stop stop-opacity="1" stop-color="rgb(60.220337%, 60.220337%, 63.682556%)" offset="0.125"/><stop stop-opacity="1" stop-color="rgb(59.997559%, 59.997559%, 63.449097%)" offset="0.128906"/><stop stop-opacity="1" stop-color="rgb(59.776306%, 59.776306%, 63.217163%)" offset="0.132812"/><stop stop-opacity="1" stop-color="rgb(59.553528%, 59.553528%, 62.983704%)" offset="0.136719"/><stop stop-opacity="1" stop-color="rgb(59.332275%, 59.332275%, 62.75177%)" offset="0.140625"/><stop stop-opacity="1" stop-color="rgb(59.111023%, 59.111023%, 62.518311%)" offset="0.144531"/><stop stop-opacity="1" stop-color="rgb(58.889771%, 58.889771%, 62.286377%)" offset="0.148438"/><stop stop-opacity="1" stop-color="rgb(58.666992%, 58.666992%, 62.052917%)" offset="0.152344"/><stop stop-opacity="1" stop-color="rgb(58.44574%, 58.44574%, 61.820984%)" offset="0.15625"/><stop stop-opacity="1" stop-color="rgb(58.222961%, 58.222961%, 61.587524%)" offset="0.160156"/><stop stop-opacity="1" stop-color="rgb(58.001709%, 58.001709%, 61.355591%)" offset="0.164063"/><stop stop-opacity="1" stop-color="rgb(57.778931%, 57.778931%, 61.122131%)" offset="0.167969"/><stop stop-opacity="1" stop-color="rgb(57.557678%, 57.557678%, 60.890198%)" offset="0.171875"/><stop stop-opacity="1" stop-color="rgb(57.3349%, 57.3349%, 60.656738%)" offset="0.175781"/><stop stop-opacity="1" stop-color="rgb(57.113647%, 57.113647%, 60.424805%)" offset="0.179688"/><stop stop-opacity="1" stop-color="rgb(56.890869%, 56.890869%, 60.192871%)" offset="0.183594"/><stop stop-opacity="1" stop-color="rgb(56.669617%, 56.669617%, 59.960938%)" offset="0.1875"/><stop stop-opacity="1" stop-color="rgb(56.446838%, 56.446838%, 59.727478%)" offset="0.191406"/><stop stop-opacity="1" stop-color="rgb(56.225586%, 56.225586%, 59.495544%)" offset="0.195312"/><stop stop-opacity="1" stop-color="rgb(56.004333%, 56.004333%, 59.262085%)" offset="0.199219"/><stop stop-opacity="1" stop-color="rgb(55.783081%, 55.783081%, 59.030151%)" offset="0.203125"/><stop stop-opacity="1" stop-color="rgb(55.560303%, 55.560303%, 58.796692%)" offset="0.207031"/><stop stop-opacity="1" stop-color="rgb(55.33905%, 55.33905%, 58.564758%)" offset="0.210938"/><stop stop-opacity="1" stop-color="rgb(55.116272%, 55.116272%, 58.331299%)" offset="0.214844"/><stop stop-opacity="1" stop-color="rgb(54.89502%, 54.89502%, 58.099365%)" offset="0.21875"/><stop stop-opacity="1" stop-color="rgb(54.672241%, 54.672241%, 57.865906%)" offset="0.222656"/><stop stop-opacity="1" stop-color="rgb(54.450989%, 54.450989%, 57.633972%)" offset="0.226562"/><stop stop-opacity="1" stop-color="rgb(54.22821%, 54.22821%, 57.400513%)" offset="0.230469"/><stop stop-opacity="1" stop-color="rgb(54.006958%, 54.006958%, 57.168579%)" offset="0.234375"/><stop stop-opacity="1" stop-color="rgb(53.78418%, 53.78418%, 56.93512%)" offset="0.238281"/><stop stop-opacity="1" stop-color="rgb(53.562927%, 53.562927%, 56.703186%)" offset="0.242188"/><stop stop-opacity="1" stop-color="rgb(53.340149%, 53.340149%, 56.471252%)" offset="0.246094"/><stop stop-opacity="1" stop-color="rgb(53.118896%, 53.118896%, 56.239319%)" offset="0.25"/><stop stop-opacity="1" stop-color="rgb(52.897644%, 52.897644%, 56.005859%)" offset="0.253906"/><stop stop-opacity="1" stop-color="rgb(52.676392%, 52.676392%, 55.773926%)" offset="0.257813"/><stop stop-opacity="1" stop-color="rgb(52.453613%, 52.453613%, 55.540466%)" offset="0.261719"/><stop stop-opacity="1" stop-color="rgb(52.232361%, 52.232361%, 55.308533%)" offset="0.265625"/><stop stop-opacity="1" stop-color="rgb(52.009583%, 52.009583%, 55.075073%)" offset="0.269531"/><stop stop-opacity="1" stop-color="rgb(51.78833%, 51.78833%, 54.84314%)" offset="0.273438"/><stop stop-opacity="1" stop-color="rgb(51.565552%, 51.565552%, 54.60968%)" offset="0.277344"/><stop stop-opacity="1" stop-color="rgb(51.344299%, 51.344299%, 54.377747%)" offset="0.28125"/><stop stop-opacity="1" stop-color="rgb(51.121521%, 51.121521%, 54.144287%)" offset="0.285156"/><stop stop-opacity="1" stop-color="rgb(50.900269%, 50.900269%, 53.912354%)" offset="0.289063"/><stop stop-opacity="1" stop-color="rgb(50.67749%, 50.67749%, 53.678894%)" offset="0.292969"/><stop stop-opacity="1" stop-color="rgb(50.456238%, 50.456238%, 53.44696%)" offset="0.296875"/><stop stop-opacity="1" stop-color="rgb(50.233459%, 50.233459%, 53.213501%)" offset="0.300781"/><stop stop-opacity="1" stop-color="rgb(50.012207%, 50.012207%, 52.981567%)" offset="0.304688"/><stop stop-opacity="1" stop-color="rgb(49.790955%, 49.790955%, 52.749634%)" offset="0.308594"/><stop stop-opacity="1" stop-color="rgb(49.569702%, 49.569702%, 52.5177%)" offset="0.3125"/><stop stop-opacity="1" stop-color="rgb(49.346924%, 49.346924%, 52.284241%)" offset="0.316406"/><stop stop-opacity="1" stop-color="rgb(49.125671%, 49.125671%, 52.052307%)" offset="0.320313"/><stop stop-opacity="1" stop-color="rgb(48.902893%, 48.902893%, 51.818848%)" offset="0.324219"/><stop stop-opacity="1" stop-color="rgb(48.681641%, 48.681641%, 51.586914%)" offset="0.328125"/><stop stop-opacity="1" stop-color="rgb(48.458862%, 48.458862%, 51.353455%)" offset="0.332031"/><stop stop-opacity="1" stop-color="rgb(48.23761%, 48.23761%, 51.121521%)" offset="0.335938"/><stop stop-opacity="1" stop-color="rgb(48.014832%, 48.014832%, 50.888062%)" offset="0.339844"/><stop stop-opacity="1" stop-color="rgb(47.793579%, 47.793579%, 50.656128%)" offset="0.34375"/><stop stop-opacity="1" stop-color="rgb(47.570801%, 47.570801%, 50.422668%)" offset="0.347656"/><stop stop-opacity="1" stop-color="rgb(47.349548%, 47.349548%, 50.190735%)" offset="0.351562"/><stop stop-opacity="1" stop-color="rgb(47.128296%, 47.128296%, 49.957275%)" offset="0.355469"/><stop stop-opacity="1" stop-color="rgb(46.907043%, 46.907043%, 49.725342%)" offset="0.359375"/><stop stop-opacity="1" stop-color="rgb(46.684265%, 46.684265%, 49.493408%)" offset="0.363281"/><stop stop-opacity="1" stop-color="rgb(46.463013%, 46.463013%, 49.261475%)" offset="0.367188"/><stop stop-opacity="1" stop-color="rgb(46.240234%, 46.240234%, 49.028015%)" offset="0.371094"/><stop stop-opacity="1" stop-color="rgb(46.018982%, 46.018982%, 48.796082%)" offset="0.375"/><stop stop-opacity="1" stop-color="rgb(45.796204%, 45.796204%, 48.562622%)" offset="0.378906"/><stop stop-opacity="1" stop-color="rgb(45.574951%, 45.574951%, 48.330688%)" offset="0.382813"/><stop stop-opacity="1" stop-color="rgb(45.352173%, 45.352173%, 48.097229%)" offset="0.386719"/><stop stop-opacity="1" stop-color="rgb(45.13092%, 45.13092%, 47.865295%)" offset="0.390625"/><stop stop-opacity="1" stop-color="rgb(44.908142%, 44.908142%, 47.631836%)" offset="0.394531"/><stop stop-opacity="1" stop-color="rgb(44.68689%, 44.68689%, 47.399902%)" offset="0.398438"/><stop stop-opacity="1" stop-color="rgb(44.464111%, 44.464111%, 47.166443%)" offset="0.402344"/><stop stop-opacity="1" stop-color="rgb(44.242859%, 44.242859%, 46.934509%)" offset="0.40625"/><stop stop-opacity="1" stop-color="rgb(44.021606%, 44.021606%, 46.70105%)" offset="0.410156"/><stop stop-opacity="1" stop-color="rgb(43.800354%, 43.800354%, 46.469116%)" offset="0.414062"/><stop stop-opacity="1" stop-color="rgb(43.577576%, 43.577576%, 46.235657%)" offset="0.417969"/><stop stop-opacity="1" stop-color="rgb(43.356323%, 43.356323%, 46.003723%)" offset="0.421875"/><stop stop-opacity="1" stop-color="rgb(43.133545%, 43.133545%, 45.77179%)" offset="0.425781"/><stop stop-opacity="1" stop-color="rgb(42.912292%, 42.912292%, 45.539856%)" offset="0.429688"/><stop stop-opacity="1" stop-color="rgb(42.689514%, 42.689514%, 45.306396%)" offset="0.433594"/><stop stop-opacity="1" stop-color="rgb(42.468262%, 42.468262%, 45.074463%)" offset="0.4375"/><stop stop-opacity="1" stop-color="rgb(42.245483%, 42.245483%, 44.841003%)" offset="0.441406"/><stop stop-opacity="1" stop-color="rgb(42.024231%, 42.024231%, 44.60907%)" offset="0.445313"/><stop stop-opacity="1" stop-color="rgb(41.801453%, 41.801453%, 44.37561%)" offset="0.449219"/><stop stop-opacity="1" stop-color="rgb(41.5802%, 41.5802%, 44.143677%)" offset="0.453125"/><stop stop-opacity="1" stop-color="rgb(41.357422%, 41.357422%, 43.910217%)" offset="0.457031"/><stop stop-opacity="1" stop-color="rgb(41.136169%, 41.136169%, 43.678284%)" offset="0.460938"/><stop stop-opacity="1" stop-color="rgb(40.914917%, 40.914917%, 43.444824%)" offset="0.464844"/><stop stop-opacity="1" stop-color="rgb(40.693665%, 40.693665%, 43.212891%)" offset="0.46875"/><stop stop-opacity="1" stop-color="rgb(40.470886%, 40.470886%, 42.979431%)" offset="0.472656"/><stop stop-opacity="1" stop-color="rgb(40.249634%, 40.249634%, 42.747498%)" offset="0.476562"/><stop stop-opacity="1" stop-color="rgb(40.026855%, 40.026855%, 42.514038%)" offset="0.480469"/><stop stop-opacity="1" stop-color="rgb(39.805603%, 39.805603%, 42.282104%)" offset="0.484375"/><stop stop-opacity="1" stop-color="rgb(39.582825%, 39.582825%, 42.050171%)" offset="0.488281"/><stop stop-opacity="1" stop-color="rgb(39.361572%, 39.361572%, 41.818237%)" offset="0.492188"/><stop stop-opacity="1" stop-color="rgb(39.138794%, 39.138794%, 41.584778%)" offset="0.496094"/><stop stop-opacity="1" stop-color="rgb(38.917542%, 38.917542%, 41.352844%)" offset="0.5"/><stop stop-opacity="1" stop-color="rgb(38.694763%, 38.694763%, 41.119385%)" offset="0.503906"/><stop stop-opacity="1" stop-color="rgb(38.473511%, 38.473511%, 40.887451%)" offset="0.507812"/><stop stop-opacity="1" stop-color="rgb(38.250732%, 38.250732%, 40.653992%)" offset="0.511719"/><stop stop-opacity="1" stop-color="rgb(38.02948%, 38.02948%, 40.422058%)" offset="0.515625"/><stop stop-opacity="1" stop-color="rgb(37.808228%, 37.808228%, 40.188599%)" offset="0.519531"/><stop stop-opacity="1" stop-color="rgb(37.586975%, 37.586975%, 39.956665%)" offset="0.523438"/><stop stop-opacity="1" stop-color="rgb(37.364197%, 37.364197%, 39.723206%)" offset="0.527344"/><stop stop-opacity="1" stop-color="rgb(37.142944%, 37.142944%, 39.491272%)" offset="0.53125"/><stop stop-opacity="1" stop-color="rgb(36.920166%, 36.920166%, 39.257812%)" offset="0.535156"/><stop stop-opacity="1" stop-color="rgb(36.698914%, 36.698914%, 39.025879%)" offset="0.539062"/><stop stop-opacity="1" stop-color="rgb(36.476135%, 36.476135%, 38.792419%)" offset="0.542969"/><stop stop-opacity="1" stop-color="rgb(36.254883%, 36.254883%, 38.560486%)" offset="0.546875"/><stop stop-opacity="1" stop-color="rgb(36.032104%, 36.032104%, 38.328552%)" offset="0.550781"/><stop stop-opacity="1" stop-color="rgb(35.810852%, 35.810852%, 38.096619%)" offset="0.554688"/><stop stop-opacity="1" stop-color="rgb(35.588074%, 35.588074%, 37.863159%)" offset="0.558594"/><stop stop-opacity="1" stop-color="rgb(35.366821%, 35.366821%, 37.631226%)" offset="0.5625"/><stop stop-opacity="1" stop-color="rgb(35.144043%, 35.144043%, 37.397766%)" offset="0.566406"/><stop stop-opacity="1" stop-color="rgb(34.922791%, 34.922791%, 37.165833%)" offset="0.570312"/><stop stop-opacity="1" stop-color="rgb(34.701538%, 34.701538%, 36.932373%)" offset="0.574219"/><stop stop-opacity="1" stop-color="rgb(34.480286%, 34.480286%, 36.700439%)" offset="0.578125"/><stop stop-opacity="1" stop-color="rgb(34.257507%, 34.257507%, 36.46698%)" offset="0.582031"/><stop stop-opacity="1" stop-color="rgb(34.036255%, 34.036255%, 36.235046%)" offset="0.585938"/><stop stop-opacity="1" stop-color="rgb(33.813477%, 33.813477%, 36.001587%)" offset="0.589844"/><stop stop-opacity="1" stop-color="rgb(33.592224%, 33.592224%, 35.769653%)" offset="0.59375"/><stop stop-opacity="1" stop-color="rgb(33.369446%, 33.369446%, 35.536194%)" offset="0.597656"/><stop stop-opacity="1" stop-color="rgb(33.148193%, 33.148193%, 35.30426%)" offset="0.601562"/><stop stop-opacity="1" stop-color="rgb(32.925415%, 32.925415%, 35.070801%)" offset="0.605469"/><stop stop-opacity="1" stop-color="rgb(32.704163%, 32.704163%, 34.838867%)" offset="0.609375"/><stop stop-opacity="1" stop-color="rgb(32.481384%, 32.481384%, 34.606934%)" offset="0.613281"/><stop stop-opacity="1" stop-color="rgb(32.260132%, 32.260132%, 34.375%)" offset="0.617188"/><stop stop-opacity="1" stop-color="rgb(32.037354%, 32.037354%, 34.141541%)" offset="0.621094"/><stop stop-opacity="1" stop-color="rgb(31.816101%, 31.816101%, 33.909607%)" offset="0.625"/><stop stop-opacity="1" stop-color="rgb(31.594849%, 31.594849%, 33.676147%)" offset="0.628906"/><stop stop-opacity="1" stop-color="rgb(31.373596%, 31.373596%, 33.444214%)" offset="0.632812"/><stop stop-opacity="1" stop-color="rgb(31.150818%, 31.150818%, 33.210754%)" offset="0.636719"/><stop stop-opacity="1" stop-color="rgb(30.929565%, 30.929565%, 32.978821%)" offset="0.640625"/><stop stop-opacity="1" stop-color="rgb(30.706787%, 30.706787%, 32.745361%)" offset="0.644531"/><stop stop-opacity="1" stop-color="rgb(30.485535%, 30.485535%, 32.513428%)" offset="0.648438"/><stop stop-opacity="1" stop-color="rgb(30.262756%, 30.262756%, 32.279968%)" offset="0.652344"/><stop stop-opacity="1" stop-color="rgb(30.041504%, 30.041504%, 32.048035%)" offset="0.65625"/><stop stop-opacity="1" stop-color="rgb(29.818726%, 29.818726%, 31.814575%)" offset="0.660156"/><stop stop-opacity="1" stop-color="rgb(29.597473%, 29.597473%, 31.582642%)" offset="0.664062"/><stop stop-opacity="1" stop-color="rgb(29.374695%, 29.374695%, 31.350708%)" offset="0.667969"/><stop stop-opacity="1" stop-color="rgb(29.153442%, 29.153442%, 31.118774%)" offset="0.671875"/><stop stop-opacity="1" stop-color="rgb(28.930664%, 28.930664%, 30.885315%)" offset="0.675781"/><stop stop-opacity="1" stop-color="rgb(28.709412%, 28.709412%, 30.653381%)" offset="0.679688"/><stop stop-opacity="1" stop-color="rgb(28.488159%, 28.488159%, 30.419922%)" offset="0.683594"/><stop stop-opacity="1" stop-color="rgb(28.266907%, 28.266907%, 30.187988%)" offset="0.6875"/><stop stop-opacity="1" stop-color="rgb(28.044128%, 28.044128%, 29.954529%)" offset="0.691406"/><stop stop-opacity="1" stop-color="rgb(27.822876%, 27.822876%, 29.722595%)" offset="0.695312"/><stop stop-opacity="1" stop-color="rgb(27.600098%, 27.600098%, 29.489136%)" offset="0.699219"/><stop stop-opacity="1" stop-color="rgb(27.378845%, 27.378845%, 29.257202%)" offset="0.703125"/><stop stop-opacity="1" stop-color="rgb(27.156067%, 27.156067%, 29.023743%)" offset="0.707031"/><stop stop-opacity="1" stop-color="rgb(26.934814%, 26.934814%, 28.791809%)" offset="0.710938"/><stop stop-opacity="1" stop-color="rgb(26.712036%, 26.712036%, 28.55835%)" offset="0.714844"/><stop stop-opacity="1" stop-color="rgb(26.490784%, 26.490784%, 28.326416%)" offset="0.71875"/><stop stop-opacity="1" stop-color="rgb(26.268005%, 26.268005%, 28.092957%)" offset="0.722656"/><stop stop-opacity="1" stop-color="rgb(26.046753%, 26.046753%, 27.861023%)" offset="0.726562"/><stop stop-opacity="1" stop-color="rgb(25.823975%, 25.823975%, 27.629089%)" offset="0.730469"/><stop stop-opacity="1" stop-color="rgb(25.602722%, 25.602722%, 27.397156%)" offset="0.734375"/><stop stop-opacity="1" stop-color="rgb(25.38147%, 25.38147%, 27.163696%)" offset="0.738281"/><stop stop-opacity="1" stop-color="rgb(25.160217%, 25.160217%, 26.931763%)" offset="0.742188"/><stop stop-opacity="1" stop-color="rgb(24.937439%, 24.937439%, 26.698303%)" offset="0.746094"/><stop stop-opacity="1" stop-color="rgb(24.716187%, 24.716187%, 26.46637%)" offset="0.75"/><stop stop-opacity="1" stop-color="rgb(24.493408%, 24.493408%, 26.23291%)" offset="0.753906"/><stop stop-opacity="1" stop-color="rgb(24.272156%, 24.272156%, 26.000977%)" offset="0.757812"/><stop stop-opacity="1" stop-color="rgb(24.049377%, 24.049377%, 25.767517%)" offset="0.761719"/><stop stop-opacity="1" stop-color="rgb(23.828125%, 23.828125%, 25.535583%)" offset="0.765625"/><stop stop-opacity="1" stop-color="rgb(23.605347%, 23.605347%, 25.302124%)" offset="0.769531"/><stop stop-opacity="1" stop-color="rgb(23.384094%, 23.384094%, 25.07019%)" offset="0.773438"/><stop stop-opacity="1" stop-color="rgb(23.161316%, 23.161316%, 24.836731%)" offset="0.777344"/><stop stop-opacity="1" stop-color="rgb(22.940063%, 22.940063%, 24.604797%)" offset="0.78125"/><stop stop-opacity="1" stop-color="rgb(22.718811%, 22.718811%, 24.371338%)" offset="0.785156"/><stop stop-opacity="1" stop-color="rgb(22.497559%, 22.497559%, 24.139404%)" offset="0.789062"/><stop stop-opacity="1" stop-color="rgb(22.27478%, 22.27478%, 23.907471%)" offset="0.792969"/><stop stop-opacity="1" stop-color="rgb(22.053528%, 22.053528%, 23.675537%)" offset="0.796875"/><stop stop-opacity="1" stop-color="rgb(21.83075%, 21.83075%, 23.442078%)" offset="0.800781"/><stop stop-opacity="1" stop-color="rgb(21.609497%, 21.609497%, 23.210144%)" offset="0.804688"/><stop stop-opacity="1" stop-color="rgb(21.386719%, 21.386719%, 22.976685%)" offset="0.808594"/><stop stop-opacity="1" stop-color="rgb(21.165466%, 21.165466%, 22.744751%)" offset="0.8125"/><stop stop-opacity="1" stop-color="rgb(20.942688%, 20.942688%, 22.511292%)" offset="0.816406"/><stop stop-opacity="1" stop-color="rgb(20.721436%, 20.721436%, 22.279358%)" offset="0.820312"/><stop stop-opacity="1" stop-color="rgb(20.498657%, 20.498657%, 22.045898%)" offset="0.824219"/><stop stop-opacity="1" stop-color="rgb(20.277405%, 20.277405%, 21.813965%)" offset="0.828125"/><stop stop-opacity="1" stop-color="rgb(20.054626%, 20.054626%, 21.580505%)" offset="0.832031"/><stop stop-opacity="1" stop-color="rgb(19.833374%, 19.833374%, 21.348572%)" offset="0.835938"/><stop stop-opacity="1" stop-color="rgb(19.612122%, 19.612122%, 21.115112%)" offset="0.839844"/><stop stop-opacity="1" stop-color="rgb(19.390869%, 19.390869%, 20.883179%)" offset="0.84375"/><stop stop-opacity="1" stop-color="rgb(19.168091%, 19.168091%, 20.649719%)" offset="0.847656"/><stop stop-opacity="1" stop-color="rgb(18.946838%, 18.946838%, 20.417786%)" offset="0.851562"/><stop stop-opacity="1" stop-color="rgb(18.72406%, 18.72406%, 20.185852%)" offset="0.855469"/><stop stop-opacity="1" stop-color="rgb(18.502808%, 18.502808%, 19.953918%)" offset="0.859375"/><stop stop-opacity="1" stop-color="rgb(18.280029%, 18.280029%, 19.720459%)" offset="0.863281"/><stop stop-opacity="1" stop-color="rgb(18.058777%, 18.058777%, 19.488525%)" offset="0.867188"/><stop stop-opacity="1" stop-color="rgb(17.835999%, 17.835999%, 19.255066%)" offset="0.871094"/><stop stop-opacity="1" stop-color="rgb(17.614746%, 17.614746%, 19.023132%)" offset="0.875"/><stop stop-opacity="1" stop-color="rgb(17.391968%, 17.391968%, 18.789673%)" offset="0.878906"/><stop stop-opacity="1" stop-color="rgb(17.170715%, 17.170715%, 18.557739%)" offset="0.882812"/><stop stop-opacity="1" stop-color="rgb(16.947937%, 16.947937%, 18.32428%)" offset="0.886719"/><stop stop-opacity="1" stop-color="rgb(16.726685%, 16.726685%, 18.092346%)" offset="0.890625"/><stop stop-opacity="1" stop-color="rgb(16.505432%, 16.505432%, 17.858887%)" offset="0.894531"/><stop stop-opacity="1" stop-color="rgb(16.28418%, 16.28418%, 17.626953%)" offset="0.898438"/><stop stop-opacity="1" stop-color="rgb(16.061401%, 16.061401%, 17.393494%)" offset="0.902344"/><stop stop-opacity="1" stop-color="rgb(15.840149%, 15.840149%, 17.16156%)" offset="0.90625"/><stop stop-opacity="1" stop-color="rgb(15.617371%, 15.617371%, 16.928101%)" offset="0.910156"/><stop stop-opacity="1" stop-color="rgb(15.396118%, 15.396118%, 16.696167%)" offset="0.914063"/><stop stop-opacity="1" stop-color="rgb(15.17334%, 15.17334%, 16.464233%)" offset="0.917969"/><stop stop-opacity="1" stop-color="rgb(14.952087%, 14.952087%, 16.2323%)" offset="0.921875"/><stop stop-opacity="1" stop-color="rgb(14.729309%, 14.729309%, 15.99884%)" offset="0.925781"/><stop stop-opacity="1" stop-color="rgb(14.508057%, 14.508057%, 15.766907%)" offset="0.929688"/><stop stop-opacity="1" stop-color="rgb(14.285278%, 14.285278%, 15.533447%)" offset="0.933594"/><stop stop-opacity="1" stop-color="rgb(14.064026%, 14.064026%, 15.301514%)" offset="0.9375"/><stop stop-opacity="1" stop-color="rgb(13.841248%, 13.841248%, 15.068054%)" offset="0.941406"/><stop stop-opacity="1" stop-color="rgb(13.619995%, 13.619995%, 14.836121%)" offset="0.945312"/><stop stop-opacity="1" stop-color="rgb(13.459778%, 13.459778%, 14.666748%)" offset="0.953125"/><stop stop-opacity="1" stop-color="rgb(13.299561%, 13.299561%, 14.498901%)" offset="0.96875"/><stop stop-opacity="1" stop-color="rgb(13.299561%, 13.299561%, 14.498901%)" offset="1"/></linearGradient></defs><g clip-path="url(#2bb8132002)"><g clip-path="url(#f6a182c561)"><path fill="url(#013252509f)" d="M 82.175781 33.023438 L 82.175781 88.367188 L 2.246094 88.367188 L 2.246094 33.023438 Z M 82.175781 33.023438 " fill-rule="nonzero"/></g></g><g fill="#a1a1aa" fill-opacity="1"><g transform="translate(93.0026, 76.664027)"><g><path d="M 15.3125 0.671875 C 12.570312 0.671875 9.90625 0.332031 7.3125 -0.34375 C 4.726562 -1.019531 2.628906 -1.921875 1.015625 -3.046875 L 4.171875 -10.125 C 5.691406 -9.125 7.453125 -8.316406 9.453125 -7.703125 C 11.453125 -7.085938 13.421875 -6.78125 15.359375 -6.78125 C 19.046875 -6.78125 20.890625 -7.703125 20.890625 -9.546875 C 20.890625 -10.515625 20.363281 -11.234375 19.3125 -11.703125 C 18.257812 -12.171875 16.570312 -12.664062 14.25 -13.1875 C 11.695312 -13.726562 9.5625 -14.3125 7.84375 -14.9375 C 6.132812 -15.570312 4.664062 -16.582031 3.4375 -17.96875 C 2.207031 -19.363281 1.59375 -21.242188 1.59375 -23.609375 C 1.59375 -25.671875 2.160156 -27.535156 3.296875 -29.203125 C 4.429688 -30.867188 6.117188 -32.1875 8.359375 -33.15625 C 10.609375 -34.125 13.363281 -34.609375 16.625 -34.609375 C 18.851562 -34.609375 21.050781 -34.359375 23.21875 -33.859375 C 25.382812 -33.359375 27.289062 -32.625 28.9375 -31.65625 L 25.984375 -24.53125 C 22.742188 -26.269531 19.609375 -27.140625 16.578125 -27.140625 C 14.671875 -27.140625 13.28125 -26.859375 12.40625 -26.296875 C 11.53125 -25.734375 11.09375 -25 11.09375 -24.09375 C 11.09375 -23.1875 11.609375 -22.503906 12.640625 -22.046875 C 13.679688 -21.597656 15.347656 -21.128906 17.640625 -20.640625 C 20.222656 -20.097656 22.363281 -19.507812 24.0625 -18.875 C 25.757812 -18.25 27.226562 -17.25 28.46875 -15.875 C 29.71875 -14.5 30.34375 -12.632812 30.34375 -10.28125 C 30.34375 -8.238281 29.773438 -6.394531 28.640625 -4.75 C 27.515625 -3.101562 25.816406 -1.785156 23.546875 -0.796875 C 21.285156 0.179688 18.539062 0.671875 15.3125 0.671875 Z M 15.3125 0.671875 "/></g></g></g><g fill="#a1a1aa" fill-opacity="1"><g transform="translate(123.395869, 76.664027)"><g><path d="M 30.578125 -26.265625 L 30.578125 0 L 21.8125 0 L 21.8125 -2.8125 C 20.84375 -1.75 19.675781 -0.941406 18.3125 -0.390625 C 16.957031 0.160156 15.519531 0.4375 14 0.4375 C 10.613281 0.4375 7.910156 -0.5625 5.890625 -2.5625 C 3.867188 -4.570312 2.859375 -7.578125 2.859375 -11.578125 L 2.859375 -26.265625 L 12.0625 -26.265625 L 12.0625 -13.09375 C 12.0625 -11.113281 12.429688 -9.671875 13.171875 -8.765625 C 13.921875 -7.867188 15.007812 -7.421875 16.4375 -7.421875 C 17.882812 -7.421875 19.066406 -7.925781 19.984375 -8.9375 C 20.910156 -9.957031 21.375 -11.519531 21.375 -13.625 L 21.375 -26.265625 Z M 30.578125 -26.265625 "/></g></g></g><g fill="#a1a1aa" fill-opacity="1"><g transform="translate(155.97047, 76.664027)"><g><path d="M 37.171875 -26.703125 C 40.398438 -26.703125 42.976562 -25.734375 44.90625 -23.796875 C 46.832031 -21.859375 47.796875 -18.9375 47.796875 -15.03125 L 47.796875 0 L 38.578125 0 L 38.578125 -13.515625 C 38.578125 -15.359375 38.226562 -16.71875 37.53125 -17.59375 C 36.84375 -18.46875 35.867188 -18.90625 34.609375 -18.90625 C 33.210938 -18.90625 32.09375 -18.421875 31.25 -17.453125 C 30.414062 -16.484375 30 -15.007812 30 -13.03125 L 30 0 L 20.796875 0 L 20.796875 -13.515625 C 20.796875 -17.109375 19.46875 -18.90625 16.8125 -18.90625 C 15.394531 -18.90625 14.265625 -18.421875 13.421875 -17.453125 C 12.585938 -16.484375 12.171875 -15.007812 12.171875 -13.03125 L 12.171875 0 L 2.953125 0 L 2.953125 -26.265625 L 11.734375 -26.265625 L 11.734375 -23.5 C 12.703125 -24.570312 13.851562 -25.375 15.1875 -25.90625 C 16.53125 -26.4375 17.992188 -26.703125 19.578125 -26.703125 C 21.421875 -26.703125 23.066406 -26.363281 24.515625 -25.6875 C 25.972656 -25.007812 27.15625 -23.976562 28.0625 -22.59375 C 29.09375 -23.914062 30.398438 -24.929688 31.984375 -25.640625 C 33.566406 -26.347656 35.296875 -26.703125 37.171875 -26.703125 Z M 37.171875 -26.703125 "/></g></g></g><g fill="#a1a1aa" fill-opacity="1"><g transform="translate(205.656432, 76.664027)"><g><path d="M 10.609375 -26.3125 L 0.1875 -26.3125 L 0.1875 -33.921875 L 30.578125 -33.921875 L 30.578125 -26.3125 L 20.21875 -26.3125 L 20.21875 0 L 10.609375 0 Z M 10.609375 -26.3125 "/></g></g></g><g fill="#a1a1aa" fill-opacity="1"><g transform="translate(235.468002, 76.664027)"><g><path d="M 20.0625 -26.703125 C 23.332031 -26.703125 25.957031 -25.734375 27.9375 -23.796875 C 29.925781 -21.859375 30.921875 -18.9375 30.921875 -15.03125 L 30.921875 0 L 21.71875 0 L 21.71875 -13.515625 C 21.71875 -17.109375 20.28125 -18.90625 17.40625 -18.90625 C 15.820312 -18.90625 14.550781 -18.382812 13.59375 -17.34375 C 12.644531 -16.3125 12.171875 -14.765625 12.171875 -12.703125 L 12.171875 0 L 2.953125 0 L 2.953125 -35.96875 L 12.171875 -35.96875 L 12.171875 -23.84375 C 13.171875 -24.78125 14.347656 -25.488281 15.703125 -25.96875 C 17.054688 -26.457031 18.507812 -26.703125 20.0625 -26.703125 Z M 20.0625 -26.703125 "/></g></g></g><g fill="#a1a1aa" fill-opacity="1"><g transform="translate(268.236503, 76.664027)"><g><path d="M 29.8125 -13.09375 C 29.8125 -13.019531 29.757812 -12.257812 29.65625 -10.8125 L 10.5625 -10.8125 C 10.945312 -9.445312 11.695312 -8.398438 12.8125 -7.671875 C 13.925781 -6.953125 15.328125 -6.59375 17.015625 -6.59375 C 18.273438 -6.59375 19.363281 -6.769531 20.28125 -7.125 C 21.207031 -7.476562 22.140625 -8.0625 23.078125 -8.875 L 27.921875 -3.828125 C 25.367188 -0.984375 21.632812 0.4375 16.71875 0.4375 C 13.65625 0.4375 10.957031 -0.140625 8.625 -1.296875 C 6.300781 -2.460938 4.5 -4.078125 3.21875 -6.140625 C 1.945312 -8.210938 1.3125 -10.5625 1.3125 -13.1875 C 1.3125 -15.769531 1.929688 -18.085938 3.171875 -20.140625 C 4.421875 -22.191406 6.140625 -23.796875 8.328125 -24.953125 C 10.523438 -26.117188 13 -26.703125 15.75 -26.703125 C 18.363281 -26.703125 20.738281 -26.160156 22.875 -25.078125 C 25.007812 -23.992188 26.695312 -22.425781 27.9375 -20.375 C 29.1875 -18.320312 29.8125 -15.894531 29.8125 -13.09375 Z M 15.796875 -20.15625 C 14.378906 -20.15625 13.191406 -19.75 12.234375 -18.9375 C 11.285156 -18.132812 10.679688 -17.039062 10.421875 -15.65625 L 21.1875 -15.65625 C 20.925781 -17.039062 20.316406 -18.132812 19.359375 -18.9375 C 18.410156 -19.75 17.222656 -20.15625 15.796875 -20.15625 Z M 15.796875 -20.15625 "/></g></g></g><g fill="#a1a1aa" fill-opacity="1"><g transform="translate(298.387397, 76.664027)"><g><path d="M 15.3125 0.671875 C 12.570312 0.671875 9.90625 0.332031 7.3125 -0.34375 C 4.726562 -1.019531 2.628906 -1.921875 1.015625 -3.046875 L 4.171875 -10.125 C 5.691406 -9.125 7.453125 -8.316406 9.453125 -7.703125 C 11.453125 -7.085938 13.421875 -6.78125 15.359375 -6.78125 C 19.046875 -6.78125 20.890625 -7.703125 20.890625 -9.546875 C 20.890625 -10.515625 20.363281 -11.234375 19.3125 -11.703125 C 18.257812 -12.171875 16.570312 -12.664062 14.25 -13.1875 C 11.695312 -13.726562 9.5625 -14.3125 7.84375 -14.9375 C 6.132812 -15.570312 4.664062 -16.582031 3.4375 -17.96875 C 2.207031 -19.363281 1.59375 -21.242188 1.59375 -23.609375 C 1.59375 -25.671875 2.160156 -27.535156 3.296875 -29.203125 C 4.429688 -30.867188 6.117188 -32.1875 8.359375 -33.15625 C 10.609375 -34.125 13.363281 -34.609375 16.625 -34.609375 C 18.851562 -34.609375 21.050781 -34.359375 23.21875 -33.859375 C 25.382812 -33.359375 27.289062 -32.625 28.9375 -31.65625 L 25.984375 -24.53125 C 22.742188 -26.269531 19.609375 -27.140625 16.578125 -27.140625 C 14.671875 -27.140625 13.28125 -26.859375 12.40625 -26.296875 C 11.53125 -25.734375 11.09375 -25 11.09375 -24.09375 C 11.09375 -23.1875 11.609375 -22.503906 12.640625 -22.046875 C 13.679688 -21.597656 15.347656 -21.128906 17.640625 -20.640625 C 20.222656 -20.097656 22.363281 -19.507812 24.0625 -18.875 C 25.757812 -18.25 27.226562 -17.25 28.46875 -15.875 C 29.71875 -14.5 30.34375 -12.632812 30.34375 -10.28125 C 30.34375 -8.238281 29.773438 -6.394531 28.640625 -4.75 C 27.515625 -3.101562 25.816406 -1.785156 23.546875 -0.796875 C 21.285156 0.179688 18.539062 0.671875 15.3125 0.671875 Z M 15.3125 0.671875 "/></g></g></g><g fill="#a1a1aa" fill-opacity="1"><g transform="translate(328.780666, 76.664027)"><g><path d="M 2.953125 -26.265625 L 12.171875 -26.265625 L 12.171875 0 L 2.953125 0 Z M 7.5625 -29.171875 C 5.882812 -29.171875 4.53125 -29.640625 3.5 -30.578125 C 2.46875 -31.515625 1.953125 -32.679688 1.953125 -34.078125 C 1.953125 -35.460938 2.46875 -36.625 3.5 -37.5625 C 4.53125 -38.5 5.882812 -38.96875 7.5625 -38.96875 C 9.25 -38.96875 10.609375 -38.519531 11.640625 -37.625 C 12.671875 -36.738281 13.1875 -35.601562 13.1875 -34.21875 C 13.1875 -32.757812 12.671875 -31.550781 11.640625 -30.59375 C 10.609375 -29.644531 9.25 -29.171875 7.5625 -29.171875 Z M 7.5625 -29.171875 "/></g></g></g><g fill="#a1a1aa" fill-opacity="1"><g transform="translate(342.983558, 76.664027)"><g><path d="M 25.828125 -6.875 L 25.828125 0 L 1.59375 0 L 1.59375 -5.421875 L 13.765625 -19.4375 L 1.9375 -19.4375 L 1.9375 -26.265625 L 25.34375 -26.265625 L 25.34375 -20.890625 L 13.1875 -6.875 Z M 25.828125 -6.875 "/></g></g></g><g fill="#a1a1aa" fill-opacity="1"><g transform="translate(368.965675, 76.664027)"><g><path d="M 29.8125 -13.09375 C 29.8125 -13.019531 29.757812 -12.257812 29.65625 -10.8125 L 10.5625 -10.8125 C 10.945312 -9.445312 11.695312 -8.398438 12.8125 -7.671875 C 13.925781 -6.953125 15.328125 -6.59375 17.015625 -6.59375 C 18.273438 -6.59375 19.363281 -6.769531 20.28125 -7.125 C 21.207031 -7.476562 22.140625 -8.0625 23.078125 -8.875 L 27.921875 -3.828125 C 25.367188 -0.984375 21.632812 0.4375 16.71875 0.4375 C 13.65625 0.4375 10.957031 -0.140625 8.625 -1.296875 C 6.300781 -2.460938 4.5 -4.078125 3.21875 -6.140625 C 1.945312 -8.210938 1.3125 -10.5625 1.3125 -13.1875 C 1.3125 -15.769531 1.929688 -18.085938 3.171875 -20.140625 C 4.421875 -22.191406 6.140625 -23.796875 8.328125 -24.953125 C 10.523438 -26.117188 13 -26.703125 15.75 -26.703125 C 18.363281 -26.703125 20.738281 -26.160156 22.875 -25.078125 C 25.007812 -23.992188 26.695312 -22.425781 27.9375 -20.375 C 29.1875 -18.320312 29.8125 -15.894531 29.8125 -13.09375 Z M 15.796875 -20.15625 C 14.378906 -20.15625 13.191406 -19.75 12.234375 -18.9375 C 11.285156 -18.132812 10.679688 -17.039062 10.421875 -15.65625 L 21.1875 -15.65625 C 20.925781 -17.039062 20.316406 -18.132812 19.359375 -18.9375 C 18.410156 -19.75 17.222656 -20.15625 15.796875 -20.15625 Z M 15.796875 -20.15625 "/></g></g></g></svg>