<svg xmlns="http://www.w3.org/2000/svg" xmlns:xlink="http://www.w3.org/1999/xlink" width="534" zoomAndPan="magnify" viewBox="0 0 400.5 121.500001" height="162" preserveAspectRatio="xMidYMid meet" version="1.0"><defs><g/><clipPath id="9fb1c0e084"><path d="M 2.152344 33.023438 L 82.25 33.023438 L 82.25 88.371094 L 2.152344 88.371094 Z M 2.152344 33.023438 " clip-rule="nonzero"/></clipPath><clipPath id="ad9a4fee20"><path d="M 47.949219 76.886719 L 7.019531 76.886719 C 6.148438 75.6875 5.371094 74.414062 4.699219 73.082031 C 4.683594 73.058594 4.671875 73.03125 4.660156 73.007812 C 4.378906 72.445312 4.113281 71.867188 3.871094 71.285156 C 3.355469 70.058594 2.929688 68.785156 2.597656 67.480469 L 53.382812 67.480469 L 54.742188 69.832031 L 55.582031 71.285156 L 58.625 71.285156 L 59.464844 69.832031 L 60.824219 67.480469 L 66.257812 67.480469 L 68.976562 72.183594 L 66.257812 76.886719 L 60.824219 76.886719 L 59.464844 74.535156 L 58.625 73.082031 L 55.582031 73.082031 L 54.742188 74.535156 L 53.382812 76.886719 Z M 54.171875 50.113281 L 53.332031 51.566406 L 51.972656 53.917969 L 2.597656 53.917969 C 2.929688 52.613281 3.355469 51.339844 3.871094 50.113281 C 4.113281 49.527344 4.378906 48.953125 4.660156 48.390625 C 4.671875 48.367188 4.683594 48.339844 4.699219 48.316406 C 5.371094 46.980469 6.148438 45.710938 7.019531 44.511719 L 51.972656 44.511719 L 53.332031 46.863281 L 54.171875 48.316406 L 57.214844 48.316406 L 58.054688 46.863281 L 59.414062 44.511719 L 64.847656 44.511719 L 67.566406 49.214844 L 64.847656 53.917969 L 59.414062 53.917969 L 58.054688 51.566406 L 57.214844 50.113281 Z M 15.472656 36.832031 C 19.578125 34.414062 24.355469 33.023438 29.441406 33.023438 L 39.734375 33.023438 L 41.09375 35.378906 L 41.933594 36.832031 L 44.976562 36.832031 L 47.175781 33.023438 L 52.609375 33.023438 L 53.96875 35.375 L 54.808594 36.832031 L 55.328125 37.730469 L 54.808594 38.628906 L 53.96875 40.082031 L 52.609375 42.433594 L 47.175781 42.433594 L 45.816406 40.082031 L 44.976562 38.628906 L 41.933594 38.628906 L 41.09375 40.082031 L 39.734375 42.433594 L 8.683594 42.433594 C 9.917969 41.03125 11.292969 39.757812 12.785156 38.628906 C 13.644531 37.976562 14.539062 37.378906 15.472656 36.832031 Z M 71.371094 60.699219 L 72.730469 58.347656 L 74.089844 55.992188 L 79.523438 55.992188 L 80.882812 58.347656 L 82.242188 60.699219 L 79.523438 65.402344 L 74.089844 65.402344 Z M 65.226562 78.964844 L 79.105469 78.964844 L 81.824219 83.667969 L 80.464844 86.019531 L 79.105469 88.375 L 65.226562 88.375 L 63.867188 86.019531 L 63.027344 84.566406 L 59.984375 84.566406 L 59.148438 86.019531 L 57.789062 88.375 L 29.441406 88.375 C 24.355469 88.375 19.578125 86.984375 15.472656 84.566406 C 14.539062 84.019531 13.644531 83.417969 12.785156 82.769531 C 11.292969 81.640625 9.917969 80.363281 8.683594 78.964844 L 57.789062 78.964844 L 59.148438 81.316406 L 59.984375 82.769531 L 63.027344 82.769531 L 63.867188 81.316406 Z M 46.261719 55.992188 L 59.378906 55.992188 L 60.738281 58.347656 L 61.578125 59.800781 L 62.097656 60.699219 L 61.578125 61.597656 L 60.738281 63.050781 L 59.378906 65.402344 L 46.261719 65.402344 L 44.902344 63.050781 L 44.0625 61.597656 L 41.019531 61.597656 L 41.539062 60.699219 L 38.820312 65.402344 L 2.15625 65.402344 C 1.941406 64.160156 1.808594 62.890625 1.765625 61.597656 C 1.757812 61.300781 1.753906 61 1.753906 60.699219 C 1.753906 60.398438 1.757812 60.097656 1.765625 59.800781 C 1.808594 58.507812 1.941406 57.238281 2.15625 55.996094 L 38.820312 55.996094 L 41.539062 60.699219 L 41.019531 59.800781 L 44.0625 59.800781 L 44.902344 58.347656 L 46.261719 55.996094 Z M 46.261719 55.992188 " clip-rule="evenodd"/></clipPath><linearGradient x1="2681.378175" gradientTransform="matrix(-0.0291109, -0, -0, 0.0290953, 82.242881, 33.025103)" y1="-47.847751" x2="914.653921" gradientUnits="userSpaceOnUse" y2="2529.313827" id="cf6d65eed6"><stop stop-opacity="1" stop-color="rgb(63.09967%, 63.09967%, 66.699219%)" offset="0"/><stop stop-opacity="1" stop-color="rgb(63.09967%, 63.09967%, 66.699219%)" offset="0.0625"/><stop stop-opacity="1" stop-color="rgb(62.92572%, 62.92572%, 66.516113%)" offset="0.078125"/><stop stop-opacity="1" stop-color="rgb(62.528992%, 62.528992%, 66.1026%)" offset="0.0820312"/><stop stop-opacity="1" stop-color="rgb(62.307739%, 62.307739%, 65.870667%)" offset="0.0859375"/><stop stop-opacity="1" stop-color="rgb(62.086487%, 62.086487%, 65.637207%)" offset="0.0898438"/><stop stop-opacity="1" stop-color="rgb(61.865234%, 61.865234%, 65.405273%)" offset="0.09375"/><stop stop-opacity="1" stop-color="rgb(61.643982%, 61.643982%, 65.17334%)" offset="0.0976562"/><stop stop-opacity="1" stop-color="rgb(61.422729%, 61.422729%, 64.941406%)" offset="0.101562"/><stop stop-opacity="1" stop-color="rgb(61.201477%, 61.201477%, 64.709473%)" offset="0.105469"/><stop stop-opacity="1" stop-color="rgb(60.980225%, 60.980225%, 64.477539%)" offset="0.109375"/><stop stop-opacity="1" stop-color="rgb(60.757446%, 60.757446%, 64.245605%)" offset="0.113281"/><stop stop-opacity="1" stop-color="rgb(60.536194%, 60.536194%, 64.013672%)" offset="0.117188"/><stop stop-opacity="1" stop-color="rgb(60.314941%, 60.314941%, 63.780212%)" offset="0.121094"/><stop stop-opacity="1" stop-color="rgb(60.093689%, 60.093689%, 63.548279%)" offset="0.125"/><stop stop-opacity="1" stop-color="rgb(59.872437%, 59.872437%, 63.316345%)" offset="0.128906"/><stop stop-opacity="1" stop-color="rgb(59.651184%, 59.651184%, 63.084412%)" offset="0.132812"/><stop stop-opacity="1" stop-color="rgb(59.429932%, 59.429932%, 62.852478%)" offset="0.136719"/><stop stop-opacity="1" stop-color="rgb(59.208679%, 59.208679%, 62.620544%)" offset="0.140625"/><stop stop-opacity="1" stop-color="rgb(58.985901%, 58.985901%, 62.388611%)" offset="0.144531"/><stop stop-opacity="1" stop-color="rgb(58.764648%, 58.764648%, 62.156677%)" offset="0.148437"/><stop stop-opacity="1" stop-color="rgb(58.543396%, 58.543396%, 61.923218%)" offset="0.152344"/><stop stop-opacity="1" stop-color="rgb(58.322144%, 58.322144%, 61.691284%)" offset="0.15625"/><stop stop-opacity="1" stop-color="rgb(58.100891%, 58.100891%, 61.459351%)" offset="0.160156"/><stop stop-opacity="1" stop-color="rgb(57.879639%, 57.879639%, 61.227417%)" offset="0.164062"/><stop stop-opacity="1" stop-color="rgb(57.65686%, 57.65686%, 60.995483%)" offset="0.167969"/><stop stop-opacity="1" stop-color="rgb(57.435608%, 57.435608%, 60.76355%)" offset="0.171875"/><stop stop-opacity="1" stop-color="rgb(57.214355%, 57.214355%, 60.531616%)" offset="0.175781"/><stop stop-opacity="1" stop-color="rgb(56.993103%, 56.993103%, 60.299683%)" offset="0.179688"/><stop stop-opacity="1" stop-color="rgb(56.771851%, 56.771851%, 60.066223%)" offset="0.183594"/><stop stop-opacity="1" stop-color="rgb(56.550598%, 56.550598%, 59.83429%)" offset="0.1875"/><stop stop-opacity="1" stop-color="rgb(56.329346%, 56.329346%, 59.602356%)" offset="0.191406"/><stop stop-opacity="1" stop-color="rgb(56.108093%, 56.108093%, 59.370422%)" offset="0.195312"/><stop stop-opacity="1" stop-color="rgb(55.885315%, 55.885315%, 59.138489%)" offset="0.199219"/><stop stop-opacity="1" stop-color="rgb(55.664062%, 55.664062%, 58.906555%)" offset="0.203125"/><stop stop-opacity="1" stop-color="rgb(55.44281%, 55.44281%, 58.674622%)" offset="0.207031"/><stop stop-opacity="1" stop-color="rgb(55.221558%, 55.221558%, 58.442688%)" offset="0.210938"/><stop stop-opacity="1" stop-color="rgb(55.000305%, 55.000305%, 58.209229%)" offset="0.214844"/><stop stop-opacity="1" stop-color="rgb(54.779053%, 54.779053%, 57.977295%)" offset="0.21875"/><stop stop-opacity="1" stop-color="rgb(54.5578%, 54.5578%, 57.745361%)" offset="0.222656"/><stop stop-opacity="1" stop-color="rgb(54.336548%, 54.336548%, 57.513428%)" offset="0.226562"/><stop stop-opacity="1" stop-color="rgb(54.11377%, 54.11377%, 57.281494%)" offset="0.230469"/><stop stop-opacity="1" stop-color="rgb(53.892517%, 53.892517%, 57.049561%)" offset="0.234375"/><stop stop-opacity="1" stop-color="rgb(53.671265%, 53.671265%, 56.817627%)" offset="0.238281"/><stop stop-opacity="1" stop-color="rgb(53.450012%, 53.450012%, 56.585693%)" offset="0.242188"/><stop stop-opacity="1" stop-color="rgb(53.22876%, 53.22876%, 56.352234%)" offset="0.246094"/><stop stop-opacity="1" stop-color="rgb(53.007507%, 53.007507%, 56.1203%)" offset="0.25"/><stop stop-opacity="1" stop-color="rgb(52.786255%, 52.786255%, 55.888367%)" offset="0.253906"/><stop stop-opacity="1" stop-color="rgb(52.565002%, 52.565002%, 55.656433%)" offset="0.257812"/><stop stop-opacity="1" stop-color="rgb(52.342224%, 52.342224%, 55.4245%)" offset="0.261719"/><stop stop-opacity="1" stop-color="rgb(52.120972%, 52.120972%, 55.192566%)" offset="0.265625"/><stop stop-opacity="1" stop-color="rgb(51.899719%, 51.899719%, 54.960632%)" offset="0.269531"/><stop stop-opacity="1" stop-color="rgb(51.678467%, 51.678467%, 54.728699%)" offset="0.273438"/><stop stop-opacity="1" stop-color="rgb(51.457214%, 51.457214%, 54.495239%)" offset="0.277344"/><stop stop-opacity="1" stop-color="rgb(51.235962%, 51.235962%, 54.263306%)" offset="0.28125"/><stop stop-opacity="1" stop-color="rgb(51.014709%, 51.014709%, 54.031372%)" offset="0.285156"/><stop stop-opacity="1" stop-color="rgb(50.793457%, 50.793457%, 53.799438%)" offset="0.289062"/><stop stop-opacity="1" stop-color="rgb(50.570679%, 50.570679%, 53.567505%)" offset="0.292969"/><stop stop-opacity="1" stop-color="rgb(50.349426%, 50.349426%, 53.335571%)" offset="0.296875"/><stop stop-opacity="1" stop-color="rgb(50.128174%, 50.128174%, 53.103638%)" offset="0.300781"/><stop stop-opacity="1" stop-color="rgb(49.906921%, 49.906921%, 52.871704%)" offset="0.304687"/><stop stop-opacity="1" stop-color="rgb(49.685669%, 49.685669%, 52.638245%)" offset="0.308594"/><stop stop-opacity="1" stop-color="rgb(49.464417%, 49.464417%, 52.406311%)" offset="0.3125"/><stop stop-opacity="1" stop-color="rgb(49.243164%, 49.243164%, 52.174377%)" offset="0.316406"/><stop stop-opacity="1" stop-color="rgb(49.021912%, 49.021912%, 51.942444%)" offset="0.320312"/><stop stop-opacity="1" stop-color="rgb(48.799133%, 48.799133%, 51.71051%)" offset="0.324219"/><stop stop-opacity="1" stop-color="rgb(48.577881%, 48.577881%, 51.478577%)" offset="0.328125"/><stop stop-opacity="1" stop-color="rgb(48.356628%, 48.356628%, 51.246643%)" offset="0.332031"/><stop stop-opacity="1" stop-color="rgb(48.135376%, 48.135376%, 51.014709%)" offset="0.335937"/><stop stop-opacity="1" stop-color="rgb(47.914124%, 47.914124%, 50.78125%)" offset="0.339844"/><stop stop-opacity="1" stop-color="rgb(47.692871%, 47.692871%, 50.549316%)" offset="0.34375"/><stop stop-opacity="1" stop-color="rgb(47.470093%, 47.470093%, 50.317383%)" offset="0.347656"/><stop stop-opacity="1" stop-color="rgb(47.24884%, 47.24884%, 50.085449%)" offset="0.351562"/><stop stop-opacity="1" stop-color="rgb(47.027588%, 47.027588%, 49.853516%)" offset="0.355469"/><stop stop-opacity="1" stop-color="rgb(46.806335%, 46.806335%, 49.621582%)" offset="0.359375"/><stop stop-opacity="1" stop-color="rgb(46.585083%, 46.585083%, 49.389648%)" offset="0.363281"/><stop stop-opacity="1" stop-color="rgb(46.363831%, 46.363831%, 49.157715%)" offset="0.367188"/><stop stop-opacity="1" stop-color="rgb(46.142578%, 46.142578%, 48.924255%)" offset="0.371094"/><stop stop-opacity="1" stop-color="rgb(45.921326%, 45.921326%, 48.692322%)" offset="0.375"/><stop stop-opacity="1" stop-color="rgb(45.698547%, 45.698547%, 48.460388%)" offset="0.378906"/><stop stop-opacity="1" stop-color="rgb(45.477295%, 45.477295%, 48.228455%)" offset="0.382812"/><stop stop-opacity="1" stop-color="rgb(45.256042%, 45.256042%, 47.996521%)" offset="0.386719"/><stop stop-opacity="1" stop-color="rgb(45.03479%, 45.03479%, 47.764587%)" offset="0.390625"/><stop stop-opacity="1" stop-color="rgb(44.813538%, 44.813538%, 47.532654%)" offset="0.394531"/><stop stop-opacity="1" stop-color="rgb(44.592285%, 44.592285%, 47.30072%)" offset="0.398438"/><stop stop-opacity="1" stop-color="rgb(44.371033%, 44.371033%, 47.067261%)" offset="0.402344"/><stop stop-opacity="1" stop-color="rgb(44.14978%, 44.14978%, 46.835327%)" offset="0.40625"/><stop stop-opacity="1" stop-color="rgb(43.927002%, 43.927002%, 46.603394%)" offset="0.410156"/><stop stop-opacity="1" stop-color="rgb(43.70575%, 43.70575%, 46.37146%)" offset="0.414062"/><stop stop-opacity="1" stop-color="rgb(43.484497%, 43.484497%, 46.139526%)" offset="0.417969"/><stop stop-opacity="1" stop-color="rgb(43.263245%, 43.263245%, 45.907593%)" offset="0.421875"/><stop stop-opacity="1" stop-color="rgb(43.041992%, 43.041992%, 45.675659%)" offset="0.425781"/><stop stop-opacity="1" stop-color="rgb(42.82074%, 42.82074%, 45.443726%)" offset="0.429688"/><stop stop-opacity="1" stop-color="rgb(42.599487%, 42.599487%, 45.210266%)" offset="0.433594"/><stop stop-opacity="1" stop-color="rgb(42.378235%, 42.378235%, 44.978333%)" offset="0.4375"/><stop stop-opacity="1" stop-color="rgb(42.155457%, 42.155457%, 44.746399%)" offset="0.441406"/><stop stop-opacity="1" stop-color="rgb(41.934204%, 41.934204%, 44.514465%)" offset="0.445312"/><stop stop-opacity="1" stop-color="rgb(41.712952%, 41.712952%, 44.282532%)" offset="0.449219"/><stop stop-opacity="1" stop-color="rgb(41.491699%, 41.491699%, 44.050598%)" offset="0.453125"/><stop stop-opacity="1" stop-color="rgb(41.270447%, 41.270447%, 43.818665%)" offset="0.457031"/><stop stop-opacity="1" stop-color="rgb(41.049194%, 41.049194%, 43.586731%)" offset="0.460938"/><stop stop-opacity="1" stop-color="rgb(40.827942%, 40.827942%, 43.353271%)" offset="0.464844"/><stop stop-opacity="1" stop-color="rgb(40.606689%, 40.606689%, 43.121338%)" offset="0.46875"/><stop stop-opacity="1" stop-color="rgb(40.383911%, 40.383911%, 42.889404%)" offset="0.472656"/><stop stop-opacity="1" stop-color="rgb(40.162659%, 40.162659%, 42.657471%)" offset="0.476562"/><stop stop-opacity="1" stop-color="rgb(39.941406%, 39.941406%, 42.425537%)" offset="0.480469"/><stop stop-opacity="1" stop-color="rgb(39.720154%, 39.720154%, 42.193604%)" offset="0.484375"/><stop stop-opacity="1" stop-color="rgb(39.498901%, 39.498901%, 41.96167%)" offset="0.488281"/><stop stop-opacity="1" stop-color="rgb(39.277649%, 39.277649%, 41.729736%)" offset="0.492188"/><stop stop-opacity="1" stop-color="rgb(39.056396%, 39.056396%, 41.496277%)" offset="0.496094"/><stop stop-opacity="1" stop-color="rgb(38.835144%, 38.835144%, 41.264343%)" offset="0.5"/><stop stop-opacity="1" stop-color="rgb(38.612366%, 38.612366%, 41.03241%)" offset="0.503906"/><stop stop-opacity="1" stop-color="rgb(38.391113%, 38.391113%, 40.800476%)" offset="0.507812"/><stop stop-opacity="1" stop-color="rgb(38.169861%, 38.169861%, 40.568542%)" offset="0.511719"/><stop stop-opacity="1" stop-color="rgb(37.948608%, 37.948608%, 40.336609%)" offset="0.515625"/><stop stop-opacity="1" stop-color="rgb(37.727356%, 37.727356%, 40.104675%)" offset="0.519531"/><stop stop-opacity="1" stop-color="rgb(37.506104%, 37.506104%, 39.872742%)" offset="0.523437"/><stop stop-opacity="1" stop-color="rgb(37.284851%, 37.284851%, 39.639282%)" offset="0.527344"/><stop stop-opacity="1" stop-color="rgb(37.063599%, 37.063599%, 39.407349%)" offset="0.53125"/><stop stop-opacity="1" stop-color="rgb(36.84082%, 36.84082%, 39.175415%)" offset="0.535156"/><stop stop-opacity="1" stop-color="rgb(36.619568%, 36.619568%, 38.943481%)" offset="0.539062"/><stop stop-opacity="1" stop-color="rgb(36.398315%, 36.398315%, 38.711548%)" offset="0.542969"/><stop stop-opacity="1" stop-color="rgb(36.177063%, 36.177063%, 38.479614%)" offset="0.546875"/><stop stop-opacity="1" stop-color="rgb(35.955811%, 35.955811%, 38.247681%)" offset="0.550781"/><stop stop-opacity="1" stop-color="rgb(35.734558%, 35.734558%, 38.015747%)" offset="0.554687"/><stop stop-opacity="1" stop-color="rgb(35.51178%, 35.51178%, 37.782288%)" offset="0.558594"/><stop stop-opacity="1" stop-color="rgb(35.290527%, 35.290527%, 37.550354%)" offset="0.5625"/><stop stop-opacity="1" stop-color="rgb(35.069275%, 35.069275%, 37.31842%)" offset="0.566406"/><stop stop-opacity="1" stop-color="rgb(34.848022%, 34.848022%, 37.086487%)" offset="0.570312"/><stop stop-opacity="1" stop-color="rgb(34.62677%, 34.62677%, 36.854553%)" offset="0.574219"/><stop stop-opacity="1" stop-color="rgb(34.405518%, 34.405518%, 36.62262%)" offset="0.578125"/><stop stop-opacity="1" stop-color="rgb(34.184265%, 34.184265%, 36.390686%)" offset="0.582031"/><stop stop-opacity="1" stop-color="rgb(33.963013%, 33.963013%, 36.158752%)" offset="0.585937"/><stop stop-opacity="1" stop-color="rgb(33.740234%, 33.740234%, 35.925293%)" offset="0.589844"/><stop stop-opacity="1" stop-color="rgb(33.518982%, 33.518982%, 35.693359%)" offset="0.59375"/><stop stop-opacity="1" stop-color="rgb(33.297729%, 33.297729%, 35.461426%)" offset="0.597656"/><stop stop-opacity="1" stop-color="rgb(33.076477%, 33.076477%, 35.229492%)" offset="0.601562"/><stop stop-opacity="1" stop-color="rgb(32.855225%, 32.855225%, 34.997559%)" offset="0.605469"/><stop stop-opacity="1" stop-color="rgb(32.633972%, 32.633972%, 34.765625%)" offset="0.609375"/><stop stop-opacity="1" stop-color="rgb(32.41272%, 32.41272%, 34.533691%)" offset="0.613281"/><stop stop-opacity="1" stop-color="rgb(32.191467%, 32.191467%, 34.301758%)" offset="0.617187"/><stop stop-opacity="1" stop-color="rgb(31.968689%, 31.968689%, 34.069824%)" offset="0.621094"/><stop stop-opacity="1" stop-color="rgb(31.747437%, 31.747437%, 33.837891%)" offset="0.625"/><stop stop-opacity="1" stop-color="rgb(31.526184%, 31.526184%, 33.604431%)" offset="0.628906"/><stop stop-opacity="1" stop-color="rgb(31.304932%, 31.304932%, 33.372498%)" offset="0.632812"/><stop stop-opacity="1" stop-color="rgb(31.083679%, 31.083679%, 33.140564%)" offset="0.636719"/><stop stop-opacity="1" stop-color="rgb(30.862427%, 30.862427%, 32.90863%)" offset="0.640625"/><stop stop-opacity="1" stop-color="rgb(30.641174%, 30.641174%, 32.676697%)" offset="0.644531"/><stop stop-opacity="1" stop-color="rgb(30.419922%, 30.419922%, 32.444763%)" offset="0.648437"/><stop stop-opacity="1" stop-color="rgb(30.197144%, 30.197144%, 32.21283%)" offset="0.652344"/><stop stop-opacity="1" stop-color="rgb(29.975891%, 29.975891%, 31.980896%)" offset="0.65625"/><stop stop-opacity="1" stop-color="rgb(29.754639%, 29.754639%, 31.747437%)" offset="0.660156"/><stop stop-opacity="1" stop-color="rgb(29.533386%, 29.533386%, 31.515503%)" offset="0.664062"/><stop stop-opacity="1" stop-color="rgb(29.312134%, 29.312134%, 31.283569%)" offset="0.667969"/><stop stop-opacity="1" stop-color="rgb(29.090881%, 29.090881%, 31.051636%)" offset="0.671875"/><stop stop-opacity="1" stop-color="rgb(28.869629%, 28.869629%, 30.819702%)" offset="0.675781"/><stop stop-opacity="1" stop-color="rgb(28.648376%, 28.648376%, 30.587769%)" offset="0.679687"/><stop stop-opacity="1" stop-color="rgb(28.425598%, 28.425598%, 30.355835%)" offset="0.683594"/><stop stop-opacity="1" stop-color="rgb(28.204346%, 28.204346%, 30.123901%)" offset="0.6875"/><stop stop-opacity="1" stop-color="rgb(27.983093%, 27.983093%, 29.890442%)" offset="0.691406"/><stop stop-opacity="1" stop-color="rgb(27.761841%, 27.761841%, 29.658508%)" offset="0.695312"/><stop stop-opacity="1" stop-color="rgb(27.540588%, 27.540588%, 29.426575%)" offset="0.699219"/><stop stop-opacity="1" stop-color="rgb(27.319336%, 27.319336%, 29.194641%)" offset="0.703125"/><stop stop-opacity="1" stop-color="rgb(27.098083%, 27.098083%, 28.962708%)" offset="0.707031"/><stop stop-opacity="1" stop-color="rgb(26.876831%, 26.876831%, 28.730774%)" offset="0.710937"/><stop stop-opacity="1" stop-color="rgb(26.654053%, 26.654053%, 28.49884%)" offset="0.714844"/><stop stop-opacity="1" stop-color="rgb(26.4328%, 26.4328%, 28.266907%)" offset="0.71875"/><stop stop-opacity="1" stop-color="rgb(26.211548%, 26.211548%, 28.033447%)" offset="0.722656"/><stop stop-opacity="1" stop-color="rgb(25.990295%, 25.990295%, 27.801514%)" offset="0.726562"/><stop stop-opacity="1" stop-color="rgb(25.769043%, 25.769043%, 27.56958%)" offset="0.730469"/><stop stop-opacity="1" stop-color="rgb(25.547791%, 25.547791%, 27.337646%)" offset="0.734375"/><stop stop-opacity="1" stop-color="rgb(25.325012%, 25.325012%, 27.105713%)" offset="0.738281"/><stop stop-opacity="1" stop-color="rgb(25.10376%, 25.10376%, 26.873779%)" offset="0.742188"/><stop stop-opacity="1" stop-color="rgb(24.882507%, 24.882507%, 26.641846%)" offset="0.746094"/><stop stop-opacity="1" stop-color="rgb(24.661255%, 24.661255%, 26.409912%)" offset="0.75"/><stop stop-opacity="1" stop-color="rgb(24.440002%, 24.440002%, 26.176453%)" offset="0.753906"/><stop stop-opacity="1" stop-color="rgb(24.21875%, 24.21875%, 25.944519%)" offset="0.757812"/><stop stop-opacity="1" stop-color="rgb(23.997498%, 23.997498%, 25.712585%)" offset="0.761719"/><stop stop-opacity="1" stop-color="rgb(23.776245%, 23.776245%, 25.480652%)" offset="0.765625"/><stop stop-opacity="1" stop-color="rgb(23.553467%, 23.553467%, 25.248718%)" offset="0.769531"/><stop stop-opacity="1" stop-color="rgb(23.332214%, 23.332214%, 25.016785%)" offset="0.773438"/><stop stop-opacity="1" stop-color="rgb(23.110962%, 23.110962%, 24.784851%)" offset="0.777344"/><stop stop-opacity="1" stop-color="rgb(22.889709%, 22.889709%, 24.552917%)" offset="0.78125"/><stop stop-opacity="1" stop-color="rgb(22.668457%, 22.668457%, 24.319458%)" offset="0.785156"/><stop stop-opacity="1" stop-color="rgb(22.447205%, 22.447205%, 24.087524%)" offset="0.789062"/><stop stop-opacity="1" stop-color="rgb(22.225952%, 22.225952%, 23.855591%)" offset="0.792969"/><stop stop-opacity="1" stop-color="rgb(22.0047%, 22.0047%, 23.623657%)" offset="0.796875"/><stop stop-opacity="1" stop-color="rgb(21.781921%, 21.781921%, 23.391724%)" offset="0.800781"/><stop stop-opacity="1" stop-color="rgb(21.560669%, 21.560669%, 23.15979%)" offset="0.804688"/><stop stop-opacity="1" stop-color="rgb(21.339417%, 21.339417%, 22.927856%)" offset="0.808594"/><stop stop-opacity="1" stop-color="rgb(21.118164%, 21.118164%, 22.695923%)" offset="0.8125"/><stop stop-opacity="1" stop-color="rgb(20.896912%, 20.896912%, 22.462463%)" offset="0.816406"/><stop stop-opacity="1" stop-color="rgb(20.675659%, 20.675659%, 22.23053%)" offset="0.820312"/><stop stop-opacity="1" stop-color="rgb(20.454407%, 20.454407%, 21.998596%)" offset="0.824219"/><stop stop-opacity="1" stop-color="rgb(20.233154%, 20.233154%, 21.766663%)" offset="0.828125"/><stop stop-opacity="1" stop-color="rgb(20.010376%, 20.010376%, 21.534729%)" offset="0.832031"/><stop stop-opacity="1" stop-color="rgb(19.789124%, 19.789124%, 21.302795%)" offset="0.835938"/><stop stop-opacity="1" stop-color="rgb(19.567871%, 19.567871%, 21.070862%)" offset="0.839844"/><stop stop-opacity="1" stop-color="rgb(19.346619%, 19.346619%, 20.838928%)" offset="0.84375"/><stop stop-opacity="1" stop-color="rgb(19.125366%, 19.125366%, 20.605469%)" offset="0.847656"/><stop stop-opacity="1" stop-color="rgb(18.904114%, 18.904114%, 20.373535%)" offset="0.851562"/><stop stop-opacity="1" stop-color="rgb(18.682861%, 18.682861%, 20.141602%)" offset="0.855469"/><stop stop-opacity="1" stop-color="rgb(18.461609%, 18.461609%, 19.909668%)" offset="0.859375"/><stop stop-opacity="1" stop-color="rgb(18.238831%, 18.238831%, 19.677734%)" offset="0.863281"/><stop stop-opacity="1" stop-color="rgb(18.017578%, 18.017578%, 19.445801%)" offset="0.867188"/><stop stop-opacity="1" stop-color="rgb(17.796326%, 17.796326%, 19.213867%)" offset="0.871094"/><stop stop-opacity="1" stop-color="rgb(17.575073%, 17.575073%, 18.981934%)" offset="0.875"/><stop stop-opacity="1" stop-color="rgb(17.353821%, 17.353821%, 18.748474%)" offset="0.878906"/><stop stop-opacity="1" stop-color="rgb(17.132568%, 17.132568%, 18.516541%)" offset="0.882812"/><stop stop-opacity="1" stop-color="rgb(16.911316%, 16.911316%, 18.284607%)" offset="0.886719"/><stop stop-opacity="1" stop-color="rgb(16.690063%, 16.690063%, 18.052673%)" offset="0.890625"/><stop stop-opacity="1" stop-color="rgb(16.467285%, 16.467285%, 17.82074%)" offset="0.894531"/><stop stop-opacity="1" stop-color="rgb(16.246033%, 16.246033%, 17.588806%)" offset="0.898437"/><stop stop-opacity="1" stop-color="rgb(16.02478%, 16.02478%, 17.356873%)" offset="0.902344"/><stop stop-opacity="1" stop-color="rgb(15.803528%, 15.803528%, 17.124939%)" offset="0.90625"/><stop stop-opacity="1" stop-color="rgb(15.582275%, 15.582275%, 16.891479%)" offset="0.910156"/><stop stop-opacity="1" stop-color="rgb(15.361023%, 15.361023%, 16.659546%)" offset="0.914062"/><stop stop-opacity="1" stop-color="rgb(15.138245%, 15.138245%, 16.427612%)" offset="0.917969"/><stop stop-opacity="1" stop-color="rgb(14.916992%, 14.916992%, 16.195679%)" offset="0.921875"/><stop stop-opacity="1" stop-color="rgb(14.69574%, 14.69574%, 15.963745%)" offset="0.925781"/><stop stop-opacity="1" stop-color="rgb(14.474487%, 14.474487%, 15.731812%)" offset="0.929687"/><stop stop-opacity="1" stop-color="rgb(14.253235%, 14.253235%, 15.499878%)" offset="0.933594"/><stop stop-opacity="1" stop-color="rgb(14.031982%, 14.031982%, 15.267944%)" offset="0.9375"/><stop stop-opacity="1" stop-color="rgb(13.81073%, 13.81073%, 15.034485%)" offset="0.941406"/><stop stop-opacity="1" stop-color="rgb(13.589478%, 13.589478%, 14.802551%)" offset="0.945312"/><stop stop-opacity="1" stop-color="rgb(13.444519%, 13.444519%, 14.649963%)" offset="0.953125"/><stop stop-opacity="1" stop-color="rgb(13.299561%, 13.299561%, 14.498901%)" offset="0.96875"/><stop stop-opacity="1" stop-color="rgb(13.299561%, 13.299561%, 14.498901%)" offset="1"/></linearGradient></defs><g clip-path="url(#9fb1c0e084)"><g clip-path="url(#ad9a4fee20)"><path fill="url(#cf6d65eed6)" d="M 82.242188 33.023438 L 82.242188 88.371094 L 2.152344 88.371094 L 2.152344 33.023438 Z M 82.242188 33.023438 " fill-rule="nonzero"/></g></g><g fill="#a1a1aa" fill-opacity="1"><g transform="translate(98.536238, 74.92623)"><g><path d="M 13.65625 0.609375 C 11.207031 0.609375 8.828125 0.304688 6.515625 -0.296875 C 4.210938 -0.898438 2.34375 -1.707031 0.90625 -2.71875 L 3.71875 -9.03125 C 5.070312 -8.144531 6.640625 -7.425781 8.421875 -6.875 C 10.210938 -6.320312 11.972656 -6.046875 13.703125 -6.046875 C 16.992188 -6.046875 18.640625 -6.867188 18.640625 -8.515625 C 18.640625 -9.378906 18.171875 -10.019531 17.234375 -10.4375 C 16.296875 -10.851562 14.785156 -11.296875 12.703125 -11.765625 C 10.429688 -12.253906 8.53125 -12.78125 7 -13.34375 C 5.476562 -13.90625 4.164062 -14.804688 3.0625 -16.046875 C 1.96875 -17.285156 1.421875 -18.957031 1.421875 -21.0625 C 1.421875 -22.90625 1.925781 -24.566406 2.9375 -26.046875 C 3.945312 -27.535156 5.453125 -28.710938 7.453125 -29.578125 C 9.460938 -30.441406 11.921875 -30.875 14.828125 -30.875 C 16.816406 -30.875 18.773438 -30.648438 20.703125 -30.203125 C 22.640625 -29.753906 24.34375 -29.097656 25.8125 -28.234375 L 23.171875 -21.875 C 20.285156 -23.4375 17.488281 -24.21875 14.78125 -24.21875 C 13.082031 -24.21875 11.84375 -23.960938 11.0625 -23.453125 C 10.289062 -22.953125 9.90625 -22.296875 9.90625 -21.484375 C 9.90625 -20.679688 10.363281 -20.078125 11.28125 -19.671875 C 12.207031 -19.265625 13.691406 -18.847656 15.734375 -18.421875 C 18.046875 -17.929688 19.957031 -17.40625 21.46875 -16.84375 C 22.976562 -16.28125 24.285156 -15.382812 25.390625 -14.15625 C 26.503906 -12.9375 27.0625 -11.273438 27.0625 -9.171875 C 27.0625 -7.347656 26.554688 -5.703125 25.546875 -4.234375 C 24.535156 -2.765625 23.019531 -1.585938 21 -0.703125 C 18.988281 0.171875 16.539062 0.609375 13.65625 0.609375 Z M 13.65625 0.609375 "/></g></g></g><g fill="#a1a1aa" fill-opacity="1"><g transform="translate(125.646372, 74.92623)"><g><path d="M 27.28125 -23.4375 L 27.28125 0 L 19.453125 0 L 19.453125 -2.5 C 18.585938 -1.550781 17.550781 -0.832031 16.34375 -0.34375 C 15.132812 0.144531 13.851562 0.390625 12.5 0.390625 C 9.46875 0.390625 7.050781 -0.5 5.25 -2.28125 C 3.445312 -4.070312 2.546875 -6.753906 2.546875 -10.328125 L 2.546875 -23.4375 L 10.765625 -23.4375 L 10.765625 -11.671875 C 10.765625 -9.910156 11.09375 -8.625 11.75 -7.8125 C 12.414062 -7.007812 13.382812 -6.609375 14.65625 -6.609375 C 15.957031 -6.609375 17.015625 -7.0625 17.828125 -7.96875 C 18.648438 -8.882812 19.0625 -10.28125 19.0625 -12.15625 L 19.0625 -23.4375 Z M 27.28125 -23.4375 "/></g></g></g><g fill="#a1a1aa" fill-opacity="1"><g transform="translate(154.702207, 74.92623)"><g><path d="M 33.15625 -23.828125 C 36.039062 -23.828125 38.335938 -22.960938 40.046875 -21.234375 C 41.765625 -19.503906 42.625 -16.894531 42.625 -13.40625 L 42.625 0 L 34.421875 0 L 34.421875 -12.0625 C 34.421875 -13.707031 34.109375 -14.914062 33.484375 -15.6875 C 32.867188 -16.46875 32 -16.859375 30.875 -16.859375 C 29.632812 -16.859375 28.640625 -16.425781 27.890625 -15.5625 C 27.140625 -14.695312 26.765625 -13.382812 26.765625 -11.625 L 26.765625 0 L 18.546875 0 L 18.546875 -12.0625 C 18.546875 -15.257812 17.363281 -16.859375 15 -16.859375 C 13.726562 -16.859375 12.71875 -16.425781 11.96875 -15.5625 C 11.226562 -14.695312 10.859375 -13.382812 10.859375 -11.625 L 10.859375 0 L 2.640625 0 L 2.640625 -23.4375 L 10.46875 -23.4375 L 10.46875 -20.96875 C 11.332031 -21.914062 12.359375 -22.628906 13.546875 -23.109375 C 14.742188 -23.585938 16.050781 -23.828125 17.46875 -23.828125 C 19.113281 -23.828125 20.582031 -23.519531 21.875 -22.90625 C 23.175781 -22.300781 24.226562 -21.378906 25.03125 -20.140625 C 25.957031 -21.328125 27.125 -22.238281 28.53125 -22.875 C 29.945312 -23.507812 31.488281 -23.828125 33.15625 -23.828125 Z M 33.15625 -23.828125 "/></g></g></g><g fill="#a1a1aa" fill-opacity="1"><g transform="translate(199.021003, 74.92623)"><g><path d="M 9.46875 -23.46875 L 0.171875 -23.46875 L 0.171875 -30.265625 L 27.28125 -30.265625 L 27.28125 -23.46875 L 18.03125 -23.46875 L 18.03125 0 L 9.46875 0 Z M 9.46875 -23.46875 "/></g></g></g><g fill="#a1a1aa" fill-opacity="1"><g transform="translate(225.612274, 74.92623)"><g><path d="M 17.90625 -23.828125 C 20.8125 -23.828125 23.148438 -22.960938 24.921875 -21.234375 C 26.691406 -19.503906 27.578125 -16.894531 27.578125 -13.40625 L 27.578125 0 L 19.375 0 L 19.375 -12.0625 C 19.375 -15.257812 18.085938 -16.859375 15.515625 -16.859375 C 14.109375 -16.859375 12.976562 -16.394531 12.125 -15.46875 C 11.28125 -14.550781 10.859375 -13.171875 10.859375 -11.328125 L 10.859375 0 L 2.640625 0 L 2.640625 -32.078125 L 10.859375 -32.078125 L 10.859375 -21.265625 C 11.742188 -22.109375 12.789062 -22.742188 14 -23.171875 C 15.21875 -23.609375 16.519531 -23.828125 17.90625 -23.828125 Z M 17.90625 -23.828125 "/></g></g></g><g fill="#a1a1aa" fill-opacity="1"><g transform="translate(254.841063, 74.92623)"><g><path d="M 26.59375 -11.671875 C 26.59375 -11.617188 26.546875 -10.941406 26.453125 -9.640625 L 9.421875 -9.640625 C 9.765625 -8.429688 10.429688 -7.5 11.421875 -6.84375 C 12.421875 -6.195312 13.671875 -5.875 15.171875 -5.875 C 16.296875 -5.875 17.269531 -6.03125 18.09375 -6.34375 C 18.914062 -6.664062 19.742188 -7.1875 20.578125 -7.90625 L 24.90625 -3.421875 C 22.625 -0.878906 19.296875 0.390625 14.921875 0.390625 C 12.179688 0.390625 9.769531 -0.125 7.6875 -1.15625 C 5.613281 -2.195312 4.007812 -3.640625 2.875 -5.484375 C 1.738281 -7.328125 1.171875 -9.421875 1.171875 -11.765625 C 1.171875 -14.066406 1.722656 -16.128906 2.828125 -17.953125 C 3.941406 -19.785156 5.476562 -21.222656 7.4375 -22.265625 C 9.394531 -23.304688 11.597656 -23.828125 14.046875 -23.828125 C 16.378906 -23.828125 18.5 -23.34375 20.40625 -22.375 C 22.3125 -21.40625 23.816406 -20.003906 24.921875 -18.171875 C 26.035156 -16.347656 26.59375 -14.179688 26.59375 -11.671875 Z M 14.09375 -17.984375 C 12.820312 -17.984375 11.757812 -17.625 10.90625 -16.90625 C 10.0625 -16.1875 9.523438 -15.207031 9.296875 -13.96875 L 18.890625 -13.96875 C 18.660156 -15.207031 18.117188 -16.1875 17.265625 -16.90625 C 16.421875 -17.625 15.363281 -17.984375 14.09375 -17.984375 Z M 14.09375 -17.984375 "/></g></g></g><g fill="#a1a1aa" fill-opacity="1"><g transform="translate(281.735004, 74.92623)"><g><path d="M 13.65625 0.609375 C 11.207031 0.609375 8.828125 0.304688 6.515625 -0.296875 C 4.210938 -0.898438 2.34375 -1.707031 0.90625 -2.71875 L 3.71875 -9.03125 C 5.070312 -8.144531 6.640625 -7.425781 8.421875 -6.875 C 10.210938 -6.320312 11.972656 -6.046875 13.703125 -6.046875 C 16.992188 -6.046875 18.640625 -6.867188 18.640625 -8.515625 C 18.640625 -9.378906 18.171875 -10.019531 17.234375 -10.4375 C 16.296875 -10.851562 14.785156 -11.296875 12.703125 -11.765625 C 10.429688 -12.253906 8.53125 -12.78125 7 -13.34375 C 5.476562 -13.90625 4.164062 -14.804688 3.0625 -16.046875 C 1.96875 -17.285156 1.421875 -18.957031 1.421875 -21.0625 C 1.421875 -22.90625 1.925781 -24.566406 2.9375 -26.046875 C 3.945312 -27.535156 5.453125 -28.710938 7.453125 -29.578125 C 9.460938 -30.441406 11.921875 -30.875 14.828125 -30.875 C 16.816406 -30.875 18.773438 -30.648438 20.703125 -30.203125 C 22.640625 -29.753906 24.34375 -29.097656 25.8125 -28.234375 L 23.171875 -21.875 C 20.285156 -23.4375 17.488281 -24.21875 14.78125 -24.21875 C 13.082031 -24.21875 11.84375 -23.960938 11.0625 -23.453125 C 10.289062 -22.953125 9.90625 -22.296875 9.90625 -21.484375 C 9.90625 -20.679688 10.363281 -20.078125 11.28125 -19.671875 C 12.207031 -19.265625 13.691406 -18.847656 15.734375 -18.421875 C 18.046875 -17.929688 19.957031 -17.40625 21.46875 -16.84375 C 22.976562 -16.28125 24.285156 -15.382812 25.390625 -14.15625 C 26.503906 -12.9375 27.0625 -11.273438 27.0625 -9.171875 C 27.0625 -7.347656 26.554688 -5.703125 25.546875 -4.234375 C 24.535156 -2.765625 23.019531 -1.585938 21 -0.703125 C 18.988281 0.171875 16.539062 0.609375 13.65625 0.609375 Z M 13.65625 0.609375 "/></g></g></g><g fill="#a1a1aa" fill-opacity="1"><g transform="translate(308.845138, 74.92623)"><g><path d="M 2.640625 -23.4375 L 10.859375 -23.4375 L 10.859375 0 L 2.640625 0 Z M 6.75 -26.03125 C 5.25 -26.03125 4.035156 -26.445312 3.109375 -27.28125 C 2.191406 -28.113281 1.734375 -29.148438 1.734375 -30.390625 C 1.734375 -31.628906 2.191406 -32.664062 3.109375 -33.5 C 4.035156 -34.34375 5.25 -34.765625 6.75 -34.765625 C 8.25 -34.765625 9.457031 -34.363281 10.375 -33.5625 C 11.300781 -32.769531 11.765625 -31.757812 11.765625 -30.53125 C 11.765625 -29.226562 11.300781 -28.148438 10.375 -27.296875 C 9.457031 -26.453125 8.25 -26.03125 6.75 -26.03125 Z M 6.75 -26.03125 "/></g></g></g><g fill="#a1a1aa" fill-opacity="1"><g transform="translate(321.513808, 74.92623)"><g><path d="M 23.046875 -6.140625 L 23.046875 0 L 1.421875 0 L 1.421875 -4.84375 L 12.28125 -17.34375 L 1.734375 -17.34375 L 1.734375 -23.4375 L 22.609375 -23.4375 L 22.609375 -18.640625 L 11.765625 -6.140625 Z M 23.046875 -6.140625 "/></g></g></g><g fill="#a1a1aa" fill-opacity="1"><g transform="translate(344.68929, 74.92623)"><g><path d="M 26.59375 -11.671875 C 26.59375 -11.617188 26.546875 -10.941406 26.453125 -9.640625 L 9.421875 -9.640625 C 9.765625 -8.429688 10.429688 -7.5 11.421875 -6.84375 C 12.421875 -6.195312 13.671875 -5.875 15.171875 -5.875 C 16.296875 -5.875 17.269531 -6.03125 18.09375 -6.34375 C 18.914062 -6.664062 19.742188 -7.1875 20.578125 -7.90625 L 24.90625 -3.421875 C 22.625 -0.878906 19.296875 0.390625 14.921875 0.390625 C 12.179688 0.390625 9.769531 -0.125 7.6875 -1.15625 C 5.613281 -2.195312 4.007812 -3.640625 2.875 -5.484375 C 1.738281 -7.328125 1.171875 -9.421875 1.171875 -11.765625 C 1.171875 -14.066406 1.722656 -16.128906 2.828125 -17.953125 C 3.941406 -19.785156 5.476562 -21.222656 7.4375 -22.265625 C 9.394531 -23.304688 11.597656 -23.828125 14.046875 -23.828125 C 16.378906 -23.828125 18.5 -23.34375 20.40625 -22.375 C 22.3125 -21.40625 23.816406 -20.003906 24.921875 -18.171875 C 26.035156 -16.347656 26.59375 -14.179688 26.59375 -11.671875 Z M 14.09375 -17.984375 C 12.820312 -17.984375 11.757812 -17.625 10.90625 -16.90625 C 10.0625 -16.1875 9.523438 -15.207031 9.296875 -13.96875 L 18.890625 -13.96875 C 18.660156 -15.207031 18.117188 -16.1875 17.265625 -16.90625 C 16.421875 -17.625 15.363281 -17.984375 14.09375 -17.984375 Z M 14.09375 -17.984375 "/></g></g></g></svg>