<svg id="Layer_1" data-name="Layer 1" xmlns="http://www.w3.org/2000/svg" viewBox="0 0 23.74 23.77"><title>vite</title><path d="M8.32,10.59,8.83,2a.3.3,0,0,1,.24-.28L17.33.12a.3.3,0,0,1,.35.24.33.33,0,0,1,0,.14L16.13,5.85a.32.32,0,0,0,.21.38h.14l2.37-.45A.3.3,0,0,1,19.2,6a.25.25,0,0,1,0,.19L12.45,19.63l-.12.19a.29.29,0,0,1-.25.14.3.3,0,0,1-.3-.37l1.08-5.25a.29.29,0,0,0-.23-.35h-.15l-1.42.43a.3.3,0,0,1-.38-.2.38.38,0,0,1,0-.15l.69-3.34a.31.31,0,0,0-.24-.36H11l-2.3.53a.3.3,0,0,1-.36-.22.28.28,0,0,1,0-.09ZM23.15,2.74,17.23,3.82,16.7,5.69l2.05-.4a.8.8,0,0,1,.87,1.14L12.89,19.85v0l0,0-.12.19a.79.79,0,0,1-.66.37.86.86,0,0,1-.63-.3.81.81,0,0,1-.16-.67l1-4.93-1.11.34a.8.8,0,0,1-1-.93l.62-3.05-2,.47A.83.83,0,0,1,8,11.16a.78.78,0,0,1-.21-.6l.38-6.51L.84,2.74a.61.61,0,0,0-.7.49.65.65,0,0,0,.07.41L11.59,23.58a.6.6,0,0,0,.82.23.59.59,0,0,0,.23-.24L23.79,3.63a.6.6,0,0,0-.23-.82A.64.64,0,0,0,23.15,2.74Z" transform="translate(-0.13 -0.12)"/></svg>