<svg id="Layer_1" data-name="Layer 1" xmlns="http://www.w3.org/2000/svg" viewBox="0 0 23.88 21.79"><title>vitest</title><path d="M13.73,1.11a.39.39,0,0,0-.15,0,.44.44,0,0,0-.25.19L7.62,9.57a.5.5,0,0,0-.09.23.45.45,0,0,0,0,.23.45.45,0,0,0,.14.19.65.65,0,0,0,.22.11l3.69.78-.23,4.56a.47.47,0,0,0,.08.3.51.51,0,0,0,.25.18.42.42,0,0,0,.31,0,.45.45,0,0,0,.25-.18L18,7.71a.43.43,0,0,0,.09-.22.67.67,0,0,0,0-.24.43.43,0,0,0-.14-.19.41.41,0,0,0-.21-.1L14,6.18l.23-4.56a.46.46,0,0,0-.08-.3.47.47,0,0,0-.25-.19.44.44,0,0,0-.16,0ZM1.21,9.8a1.11,1.11,0,0,0-.81.34A1.13,1.13,0,0,0,.06,11a1.18,1.18,0,0,0,.33.82L11.18,22.56a1.34,1.34,0,0,0,.37.25,1.42,1.42,0,0,0,.45.08h0a1.32,1.32,0,0,0,.44-.08,1.25,1.25,0,0,0,.38-.25L23.61,11.77a1.18,1.18,0,0,0,.33-.82A1.16,1.16,0,0,0,22.79,9.8a1.16,1.16,0,0,0-.81.33L16.6,15.51l0,0L12,20.1,7.42,15.53l0,0L2,10.13A1.16,1.16,0,0,0,1.21,9.8Z" transform="translate(-0.06 -1.11)"/></svg>